<?xml version="1.0" standalone="no"?>
<!DOCTYPE svg PUBLIC "-//W3C//DTD SVG 1.1//EN" "http://www.w3.org/Graphics/SVG/1.1/DTD/svg11.dtd" >
<svg xmlns="http://www.w3.org/2000/svg" xmlns:xlink="http://www.w3.org/1999/xlink" version="1.1">
<metadata>
Created by FontForge 20161003 at Wed Jul 31 01:35:42 2019
 By www-data
Renn Crump - May 1, 2002
</metadata>
<defs>
<font id="Paintdrp" horiz-adv-x="685" >
  <font-face 
    font-family="Paintdrp"
    font-weight="400"
    font-stretch="normal"
    units-per-em="1000"
    panose-1="2 11 5 0 0 0 0 0 0 0"
    ascent="800"
    descent="-200"
    x-height="684"
    cap-height="806"
    bbox="-24 -348 1582.33 917"
    underline-thickness="25"
    underline-position="-86"
    unicode-range="U+0020-00A0"
  />
<missing-glyph horiz-adv-x="776" 
d="M40 0v917h696v-917h-696zM80 40h616v837h-616v-837z" />
    <glyph glyph-name=".notdef" horiz-adv-x="776" 
d="M40 0v917h696v-917h-696zM80 40h616v837h-616v-837z" />
    <glyph glyph-name=".null" horiz-adv-x="0" 
 />
    <glyph glyph-name="nonmarkingreturn" horiz-adv-x="333" 
 />
    <glyph glyph-name="space" unicode=" " horiz-adv-x="828" 
 />
    <glyph glyph-name="exclam" unicode="!" horiz-adv-x="389" 
d="M362 106q0 -27 -26 -27q-11 0 -21.5 1t-10.5 -20q0 -4 3.5 -11.5t7.5 -15t7.5 -14t3.5 -9.5v-108q-8 -4 -13.5 -7t-14.5 -3q-19 0 -25 17t-9.5 38t-9.5 38t-24 17q-23 0 -48 7.5t-45.5 21.5t-34 33t-13.5 42q0 15 12.5 31.5t29.5 16.5q13 0 34.5 -5.5t45 -13t45 -15.5
t33.5 -12l11 10q-21 8 -44 21.5t-33 21.5h-23q-13 0 -39.5 12.5t-52.5 33t-46 47t-20 54.5v153q0 4 -3 7q-3 2 -3.5 8.5t1 14t3 13.5t1.5 5q4 32 6 67t2 73l23 128q11 13 34 19.5t40 6.5q56 0 100 -65q27 -40 48.5 -106.5t31.5 -147.5q2 -18 3 -29t2 -17q1 -8 1 -20.5v-30.5
v-33q0 -92 -27 -158q-7 -17 -13 -26q0 -26 14 -31t22 -5q34 0 34 -28z" />
    <glyph glyph-name="quotedbl" unicode="&#x22;" horiz-adv-x="682" 
d="M662 738q0 -15 -20 -41.5t-47 -52t-54.5 -44t-42.5 -18.5q-23 0 -35.5 5t-12.5 21q0 4 8.5 10t18.5 13t18.5 14.5t8.5 14.5q0 6 -19.5 12.5t-43.5 14t-43.5 16t-19.5 20.5q0 59 46 84q38 21 91 21q21 0 46.5 -7t48 -19t37.5 -28.5t15 -35.5zM312 742q0 -15 -20 -41.5
t-47 -51.5t-54.5 -43.5t-42.5 -18.5q-29 0 -38 6q-10 5 -10 19q0 4 8 10t18 13t18 15t8 16q0 5 -19.5 11t-43.5 13.5t-43.5 16.5t-19.5 20q0 57 41.5 81t97.5 24q60 0 107 -34q40 -27 40 -56z" />
    <glyph glyph-name="numbersign" unicode="#" horiz-adv-x="854" 
d="M334 456l-56 -180h235l57 180h-236zM860 438q-2 0 -6 -0.5t-11 -0.5h-22q-18 0 -38.5 -9.5t-20.5 -21.5v-4q1 -4 7 -6.5t13 -5.5t12.5 -6t5.5 -7q0 -13 -21 -20.5t-35 -7.5q-16 0 -30 9t-14 29q0 8 5.5 18t10.5 20q0 11 -11.5 18t-22.5 13l-56 -180h208v-76h-230
l-64 -212q-8 -6 -21.5 -11t-27 -11t-25.5 -14.5t-18 -21.5v-2q0 -6 40 -28q8 -16 5 -22t-22 -6q-14 0 -32 3.5t-33.5 9t-26.5 12.5t-11 13q0 10 19 16q22 8 28.5 21t10.5 41l64 212h-235l-65 -212q-1 -2 -12.5 -5t-25.5 -7q-14 2 -17 -4t-0.5 -15t7 -19.5t4.5 -19.5
q0 -19 -8 -32.5t-24 -13.5q-18 0 -34 15t-16 30q2 13 3 21.5t2 15t2.5 14.5t5.5 20l67 212h-128v76h149l56 180q-23 -2 -41.5 -8t-50.5 -18q-3 -4 -7 -14.5t-8.5 -21.5t-10 -19.5t-12.5 -8.5q-5 0 -14 4.5t-9 11.5q0 2 7 18t7 21q0 1 -1.5 7.5t-5.5 14t-10.5 13.5t-15.5 7
q-6 0 -17.5 -1t-15.5 -6v76h226l67 214h112l-65 -214h236l66 214h112l-64 -214h128v-76q14 0 26 -18z" />
    <glyph glyph-name="dollar" unicode="$" horiz-adv-x="752" 
d="M264 496v67q-19 -16 -34 -37q-12 -16 -1.5 -20t35.5 -10zM490 328q0 11 -7.5 17.5t-16.5 5.5t-15 -11t-3 -31q0 -19 6.5 -20.5t14.5 5t14.5 17.5t6.5 17zM263 389h-21q-87 23 -136 42q-72 25 -72 77q0 23 5 37t21 28t46 33.5t80 53.5q8 6 20.5 11t24 11t20 14t8.5 20
q0 4 -1.5 14l-3 20t-3 17.5t-1.5 6.5q0 13 8 20.5t31 7.5q24 0 45 -4t32 -14q12 -10 23.5 -25.5t22.5 -28.5q8 -5 31 -9.5t45 -14.5q28 -13 56 -30.5t53 -38.5q48 -42 48 -59l-3.5 -8.5t-8 -18.5t-8 -18.5l-3.5 -8.5q8 -8 15.5 -21.5t7.5 -14.5q0 -10 -9 -16.5t-22 -6.5
q-26 0 -27 18.5t-1 36.5v14q0 8 -9.5 10.5t-13.5 2.5q-8 0 -19.5 -1t-13.5 -2q-15 0 -33 12t-26 16q-25 14 -42 19l-5 -73q7 -14 7 -30q0 -2 -1.5 -9.5t-1.5 -12.5t1 -6q32 -10 81.5 -25.5t96.5 -35.5t81 -46t34 -59q0 -30 -13 -57.5t-39 -48.5q-6 -5 -22.5 -16t-34.5 -24.5
t-31.5 -28t-13.5 -26.5q0 -4 2 -11.5t2 -15.5v-10h-17q-29 20 -29 31q0 2 6 12t8 17q-4 1 -5.5 2.5t-15.5 1.5q-16 0 -37.5 -11.5t-21.5 -22.5q0 -8 2 -18.5t5 -19.5l5 -15t2 -5q0 -9 -6 -16t-13 -14t-13 -15t-6 -20q0 -13 9 -21.5t16 -15.5v-14q-13 -3 -21 -3
q-22 0 -32 7.5t-12.5 18t-1 23t1.5 22.5q0 4 -1 8t-3 9h-11l-19 -23h-18l3 27q0 3 -7 9t-15 12.5t-14 10.5t-4 2q-21 26 -21 51q-2 16 -8.5 23.5t-15.5 11t-19 5t-19 4.5q-10 3 -41 17.5t-64 37t-59 51t-26 60.5q0 28 24 28q29 0 98 -27q55 -20 114 -59q19 15 21.5 17.5
t2.5 14.5v20q0 53 -8 82q-9 26 -18 26q-5 0 -5 -9z" />
    <glyph glyph-name="percent" unicode="%" horiz-adv-x="1302" 
d="M1258 182q0 -60 -29 -98q-17 -20 -36 -45t-19 -55q0 -12 2 -31.5t4 -29.5q0 -23 -23 -23q-17 0 -20 11t-1 24t7 22.5t5 7.5q8 26 12 41t4 18q0 4 -4 10h-6q-4 0 -11 -3.5t-11 -4.5q-28 -6 -35 -27.5t-7 -45.5v-11q0 -4 -2 -5.5t-4 -4t-4 -8t-2 -17.5l-12 -1
q-7 0 -11.5 18t-4.5 31q0 7 6 18t6 20l-12 21q-12 -4 -18 -5.5t-22 -1.5q-17 0 -41 5t-48.5 12t-46.5 15.5t-36 16.5q-43 24 -69 66q-21 33 -21 49v80q0 16 6.5 34t17 36t23 33.5t24.5 27.5q18 17 28.5 26t18 14t14 8t16.5 8q15 10 32 15t28 10q4 7 5.5 14t11.5 7
q23 0 50.5 -12t56.5 -31t57.5 -43t53.5 -48q15 -14 27.5 -34.5t21.5 -43.5t13.5 -46.5t4.5 -43.5zM1105 213q0 116 -53 164q-28 13 -43.5 21t-17.5 10q-19 -20 -33 -36.5t-24 -29.5q-41 -53 -41 -104q0 -59 44 -101q56 -55 105 -55q13 0 24.5 16t20 37.5t13.5 43.5t5 34z
M1026 376q0 -12 -6 -25.5t-16 -13.5q-21 0 -21 17q0 8 6 17.5t13 18.5h8q4 0 10 -5t6 -9zM509 559q0 -59 -30 -98q-17 -19 -36 -44t-19 -57q0 -8 3 -30t3 -30q0 -24 -22 -24q-16 0 -19.5 11t-1.5 24t6.5 23t4.5 8q8 26 12 41t4 19t-4 8h-6q-21 0 -33.5 -7.5t-19 -19.5
t-9 -26t-2.5 -27v-12q0 -8 -6 -10t-6 -24l-12 -2q-5 0 -10.5 18t-5.5 32q0 7 6 18t6 20l-12 21q-11 -4 -17.5 -5.5t-21.5 -1.5q-39 0 -89 15t-84 34q-14 7 -29.5 21t-29 30.5t-22.5 33t-9 30.5v80q4 16 8 27t6 17q7 16 20 36t27.5 38t29 32t25.5 20q15 9 34.5 19t33.5 15
q14 4 24 16t17 12q24 0 50.5 -11t55 -29.5t57.5 -42.5t56 -50q30 -27 48 -77q9 -25 14 -46.5t5 -44.5zM356 590q0 116 -54 164q-57 28 -60 32q-20 -21 -34 -37.5t-24 -29.5q-40 -52 -40 -103q0 -32 11 -56t33 -46q56 -55 104 -55q14 0 25.5 16t20 37.5t13.5 43.5t5 34z
M276 752q0 -12 -6 -25t-15 -13q-21 0 -21 16q0 10 5 18t13 19h9q6 0 10.5 -5.5t4.5 -9.5zM433 -78q3 -20 5 -29t2 -28q0 -14 4 -35t4 -35q0 -20 -9 -28.5t-31 -8.5q-16 0 -34 4t-33 11.5t-25 19t-10 26.5q0 11 5 26t11 28q1 3 6 10.5t11 16t10.5 17t4.5 13.5v16q0 15 -17 18
t-25 3h-14q-4 0 -6 -0.5l-6 -1.5l544 869h204l-544 -869q-9 -13 -32 -27q-4 -3 -11 -7t-14 -9z" />
    <glyph glyph-name="ampersand" unicode="&#x26;" horiz-adv-x="920" 
d="M902 257q-4 -12 -9 -55q-2 -25 -3.5 -56.5t-1.5 -70.5l-16 -3q-22 -3 -27 7t-2.5 24t8.5 27.5t6 17.5q0 14 -17 24q-8 -4 -17.5 -18.5t-18.5 -30.5t-16.5 -28t-13.5 -12q-13 0 -24 10q-16 -6 -36 -20t-36.5 -31.5t-28 -36.5t-11.5 -35q9 -9 17.5 -25.5t8.5 -27.5v-13
q0 -9 -11 -13.5t-25 -4.5q-21 0 -34.5 11t-13.5 29q0 12 6 25v63h-33q-7 0 -21 -2.5t-29.5 -5t-31.5 -5t-29 -2.5q-52 0 -118 21q-81 24 -150 69q-19 12 -41.5 34.5t-42 49t-32.5 53.5t-13 48q0 25 8.5 48.5t25.5 43.5q18 20 32.5 36.5t40.5 43.5q-26 28 -50.5 61.5
t-24.5 62.5q0 73 83 134q32 23 72.5 43t91.5 35q82 24 118 24q65 0 170 -40q136 -51 136 -121q0 -7 -4.5 -18.5t-10.5 -23.5t-10.5 -23.5t-4.5 -18.5q0 -10 15 -29v-40q-26 6 -33 19q-9 12 -12.5 14t-5.5 -0.5t-6.5 -6t-15.5 -3.5q-21 0 -33.5 14t-12.5 30q0 2 3 9t6 15
t6 15.5t3 9.5t-26.5 18t-61 36t-68 39t-47.5 28q-44 -27 -92 -88q-57 -72 -57 -117q0 -14 12 -17t28 -3h15q3 0 31 -10q16 -6 22 0t24 6q20 0 43.5 -5t43.5 -14.5t34 -22.5t14 -29q-1 -21 -3 -41.5t-2 -23.5q-4 -49 -7 -65.5t-22 -16.5q-3 0 -10.5 3t-15.5 8t-14 10.5
t-6 10.5q0 1 7.5 15.5t14 26.5t7.5 14q0 8 -8 14.5t-15 11.5q-19 -7 -49.5 -22t-59 -35t-49.5 -42t-21 -42q0 -26 17.5 -48.5t44 -38.5t58 -25t58.5 -9t45.5 3.5t36 12.5t37 23.5t47.5 36.5q-21 10 -28.5 14t-19.5 10q-31 15 -31 40q0 17 20.5 20t40.5 3h12q9 0 27 3
t39.5 6.5t42 6.5t33.5 3q19 0 41.5 -2.5t41.5 -9.5t32 -18t13 -29zM788 -1q0 -37 -6 -44q-6 -8 -23 -8q-11 0 -16 8t-6 19t0 24t1 22q0 14 16 36q26 -12 30 -24t4 -33z" />
    <glyph glyph-name="quotesingle" unicode="'" horiz-adv-x="338" 
d="M312 742q0 -15 -20 -41.5t-47 -51.5t-54.5 -43.5t-42.5 -18.5q-29 0 -38 6q-10 5 -10 19q0 4 8 10t18 13t18 15t8 16q0 5 -19.5 11t-43.5 13.5t-43.5 16.5t-19.5 20q0 57 41.5 81t97.5 24q21 0 46.5 -7t48 -19t37.5 -28t15 -36z" />
    <glyph glyph-name="parenleft" unicode="(" horiz-adv-x="470" 
d="M463 -174q0 -26 -12.5 -29.5t-29.5 -3.5q-25 0 -35 10.5t-11 27t4.5 36.5t11.5 39q19 56 19 68q0 10 -3 11t-9 7h-26q-2 -5 -3 -10.5t-1 -11.5l0.5 -7t1.5 -16t1.5 -16t0.5 -6q0 -23 -22 -23q-17 0 -21.5 7t-4.5 23v20q0 21 -4 33.5t-13 21.5t-23.5 18.5t-35.5 25.5
t-43 35t-45 40q-57 51 -94 112q-42 72 -42 134q0 50 27 122q26 66 65 120q16 22 41 48.5t67 65.5q98 91 136 91q4 0 13 -5.5t18 -13t16 -15.5t7 -13q0 -6 -14.5 -38.5t-32.5 -72t-35 -76t-22 -51.5q-36 -105 -36 -180q0 -85 44 -160q2 -3 21.5 -30t43 -61t42.5 -67.5
t19 -49.5q0 -20 -1 -36t-3 -28q-13 -20 -11 -31.5t9.5 -20.5t16 -19t8.5 -25z" />
    <glyph glyph-name="parenright" unicode=")" horiz-adv-x="504" 
d="M484 322q0 -74 -34 -145q-43 -90 -134 -151q-8 -5 -32 -13t-49.5 -17.5t-46 -19.5t-20.5 -17l12 -57q6 -26 6 -32q0 -31 -36 -31q-13 0 -28.5 10t-15.5 21v118q37 60 69 148q30 86 30 154q0 61 -14 127.5t-43 130.5t-60.5 127.5t-63.5 127.5q0 6 11.5 13.5t16.5 7.5
q38 0 84 -23t84 -49q39 -28 79.5 -68t75.5 -88q13 -18 28 -45t32 -65q49 -102 49 -164zM248 -66q-3 -4 -4.5 -8t-3.5 -8h-23q-3 10 -3 20q0 13 5.5 15.5t11.5 -0.5t11.5 -9t5.5 -10z" />
    <glyph glyph-name="asterisk" unicode="*" horiz-adv-x="598" 
d="M547 454q2 -4 2 -6q0 -4 -12.5 -12t-27 -15t-26 -11.5t-10.5 -3.5q-15 -14 -29 -40l-7 -14t-10.5 -19.5t-10 -14.5t-4.5 2q0 8 3 18.5t3 17.5q0 12 -3.5 20.5t-8.5 21.5l-10 35q-22 21 -48 48t-54 59q-26 -33 -50.5 -59.5t-47.5 -47.5q8 -7 11.5 -11t4.5 -5
q18 -21 18 -35q0 -19 -18 -30.5t-34 -11.5q-14 0 -14 12q0 -2 1 3t2.5 12t2.5 13.5t1 8.5q0 20 -17.5 18.5t-31.5 -1.5q-13 0 -28 8t-15 22q0 11 10 20.5t19 19.5q46 38 75 60.5t49 33.5q-43 6 -88.5 13t-95.5 15l35 72q126 -30 174 -50q-1 10 -5 33t-5 33q-3 19 -4 33.5
t-1 26.5h108q0 -26 -4 -52t-14 -72q23 8 43 13t37 10q21 6 45.5 12t52.5 13l34 -72q-26 -5 -51 -10.5t-51 -9.5t-47 -6t-39 -2q12 -7 26 -16t30 -20q7 -6 18 -15.5t25 -19.5t29.5 -18t32.5 -10q22 -4 30 -17z" />
    <glyph glyph-name="plus" unicode="+" horiz-adv-x="590" 
d="M562 394q0 -22 -9 -33.5t-25 -24.5v-12q0 -10 2 -22q0 -20 -5.5 -38.5t-20.5 -33.5h-12q-8 11 -8 18q0 1 5 10.5t5 23.5q0 4 -2.5 13t-7 18t-10 16t-11.5 7q-73 0 -77 -64q-5 -64 -43 -64q-72 0 -101 41q-13 18 -25.5 38t-20.5 31q-29 10 -49.5 19t-52.5 29
q-5 -10 -2 -14.5t8 -8.5t10.5 -10t5.5 -19q0 -10 -7.5 -17.5t-17.5 -7.5q-14 0 -18.5 18t-4.5 32q0 10 1 17.5t1 17.5v6q0 10 -6 17t-14 13t-14 13t-6 17t11 17t27.5 11t36 6t35.5 2q11 0 21 -1.5t17.5 0t11.5 8t4 22.5q0 3 -2 11v10q0 16 14 30t33.5 24t40 16t34.5 6
q21 0 33.5 -7t19 -22t10.5 -38t9 -55q22 1 24.5 2t9.5 2q28 0 54 -4t45.5 -14.5t31 -27.5t11.5 -44zM381 48q-21 -8 -31 -8q-11 0 -20.5 3t-9.5 10t7.5 17l13.5 18v4q0 7 -4 10t-8.5 5.5t-8.5 7.5t-4 16q0 10 10 27.5t20 17.5q24 0 24 -26q0 -15 -3 -25t-5.5 -18t-3 -14.5
t3.5 -15.5q13 -23 19 -29zM116 250q0 -20 -8.5 -30t-30.5 -10q-37 0 -37 18q0 4 2 12t5.5 16t9 14t13.5 6q13 0 29.5 -7.5t16.5 -18.5z" />
    <glyph glyph-name="comma" unicode="," horiz-adv-x="358" 
d="M338 72q0 -16 -20 -45t-47.5 -57.5t-55.5 -50t-44 -21.5q-10 0 -21.5 3t-21.5 8.5t-17 13.5t-7 17q5 14 16.5 29.5t21.5 22.5v12q-47 11 -82.5 45t-35.5 79q0 17 15 32.5t36 27t44 18t39 6.5q71 0 126 -38q54 -39 54 -102z" />
    <glyph glyph-name="hyphen" unicode="-" horiz-adv-x="708" 
d="M679 382q0 -18 -3 -29t-9 -18t-14 -12.5t-17 -13.5v-33q0 -26 -6 -52t-25 -42h-13q-8 16 -8 24q0 2 1 7t4 11q5 10 2.5 24.5t-7.5 28t-12.5 23t-13.5 9.5q-8 0 -28 -11q-16 -8 -17 -16.5t5 -17t14 -16.5t8 -16q0 -17 -8.5 -23t-24.5 -6q-29 0 -29 27q0 22 5 33t6.5 15.5
t-5 5t-28.5 0.5h-42q-11 -1 -24 -1.5t-28 -0.5q-116 0 -185 27q-55 22 -89 67q-2 2 -10.5 8t-18 14t-17.5 18t-8 19q0 19 29 29t71 14.5t89.5 5t83.5 0.5h35.5t78.5 2q49 1 70.5 1.5t14.5 0.5q89 0 133 -32q40 -28 40 -74zM540 154q0 -22 -12 -35t-38 -13q-46 0 -46 23
q0 15 14 36t28 21q12 0 34 -10q20 -9 20 -22z" />
    <glyph glyph-name="period" unicode="." horiz-adv-x="292" 
d="M270 112q0 -53 -32.5 -81.5t-87.5 -28.5q-75 0 -106 49q-20 31 -20 89q0 20 6 39.5t17 35t27 25.5t36 10t41 -8t47 -23q72 -43 72 -107z" />
    <glyph glyph-name="slash" unicode="/" horiz-adv-x="916" 
d="M234 -78q2 -13 4 -25.5t2 -31.5q0 -13 4 -34.5t4 -35.5q0 -19 -8 -28t-31 -9q-17 0 -35 4t-33 12t-25 19t-10 26q0 11 7.5 23.5t16.5 27t16.5 29.5t7.5 31v16q0 14 -16 17.5t-26 3.5h-14q-4 0 -12 -2l544 869h204l-543 -869q-3 -5 -10 -11t-16 -12t-17.5 -11.5
t-13.5 -8.5z" />
    <glyph glyph-name="zero" unicode="0" horiz-adv-x="914" 
d="M891 295q0 -41 -7.5 -78t-25.5 -63q-28 -39 -50.5 -65.5t-34.5 -42.5q-15 -21 -20 -41.5t-5 -45.5q0 -5 1 -18.5t3 -29.5t3 -30.5t1 -20.5q0 -20 -7.5 -30t-29.5 -10q-38 0 -38 30q0 -2 3.5 10.5t9.5 33t12 45t12 45.5t9.5 34.5t3.5 11.5q0 11 -4 16h-11q-6 0 -15.5 -5
t-15.5 -7q-47 -9 -62.5 -41t-15.5 -82v-21q0 -6 -2.5 -9.5t-6 -8.5t-6 -13.5t-2.5 -25.5l-22 -3q-6 -1 -11 7.5t-8.5 21.5t-6 28t-2.5 26t10.5 30t10.5 33l-21 36q-4 -2 -23 -6.5t-42 -4.5q-64 0 -151 25q-43 13 -77.5 27.5t-62.5 30.5q-35 20 -64.5 46.5t-51.5 63.5
q-34 52 -34 82v134q11 43 24 74q19 46 43 81t51 63q58 60 76 70l54 27q42 22 62 29q4 2 13.5 5t23.5 7q6 6 9.5 20.5t19.5 14.5q27 0 59 -11.5t73 -33.5q65 -34 122.5 -80t112.5 -98q49 -46 83 -134q31 -83 31 -149zM632 346q0 139 -45 220q-33 60 -89 88q-13 4 -27 9.5
t-29 11.5q-18 -22 -32 -39.5t-28 -33.5t-29 -34l-35 -42q-42 -70 -42 -136q0 -99 74 -170q97 -94 176 -94q23 0 42.5 25t33.5 60.5t22 73t8 61.5zM500 622q0 -9 -2.5 -20.5t-7 -22t-10.5 -17.5t-14 -7q-36 0 -36 27q0 4 4 13.5t9.5 19.5t10.5 18.5t7 11.5h15q7 0 15.5 -9
t8.5 -14z" />
    <glyph glyph-name="one" unicode="1" horiz-adv-x="312" 
d="M280 66q0 -27 -12.5 -46t-37.5 -19q-62 0 -126 51q-80 65 -80 164q0 54 4 90t6 52q5 69 8.5 110.5t5.5 44.5q4 16 8.5 49.5t9.5 85.5q14 144 76 144q42 0 76 -54q22 -34 34.5 -80.5t17.5 -104.5q0 -55 1.5 -94t2.5 -63q1 -32 1.5 -54t0.5 -35v-42.5t2 -95.5
q1 -61 1.5 -86.5t0.5 -16.5zM257 -62q0 -21 -6 -38q-9 -15 -9.5 -22.5t2.5 -13.5t6.5 -13.5t3.5 -23.5q-23 13 -29 12t-2 -10t12.5 -22.5t13.5 -25.5h-21q-6 0 -11 16.5t-8.5 39t-6 46t-2.5 36.5q0 5 2 13.5t6 17.5t9.5 15.5t12.5 6.5q13 0 20 -10t7 -24z" />
    <glyph glyph-name="two" unicode="2" horiz-adv-x="1092" 
d="M1071 64q-3 -14 -5 -27.5t-3 -26.5q-2 -14 -3 -40t-1 -63q-12 -3 -15 -3q-21 0 -22.5 18t-1.5 58v58l-22 3q-12 1 -22 -12t-18 -31t-14.5 -35t-12.5 -23q-11 14 -17 32q0 2 -3.5 13.5t-8.5 32.5l-414 -18q-34 -2 -84 2.5t-114 9.5q-80 7 -132 15.5t-75 20.5
q-13 -9 -17 -20q-7 -14 -15 -9.5t-15 15.5t-11.5 24.5t-4.5 17.5q0 10 14.5 23.5t35.5 28t44.5 28.5t41.5 24t27 15.5t1 2.5q6 4 37 33.5t69.5 68t76.5 79t60 67.5q55 64 80 107q33 54 33 91q0 29 -9.5 36.5t-40.5 7.5q-12 0 -44 -6q-26 -6 -61 -13.5t-70.5 -14.5
t-65.5 -12.5t-45 -6.5q-6 -1 -19.5 -1h-28h-26.5h-14q-16 0 -29.5 -11t-24.5 -25q-22 8 -29 29t-7 47q0 44 130 89q96 33 228 33q190 0 309 -100q103 -88 103 -182q0 -54 -52 -120q-21 -27 -101 -99q-62 -56 -69 -76q66 0 121.5 -2t100.5 -7q127 -13 194 -43q81 -36 81 -103
zM110 494q0 -22 -33 -22q-47 0 -47 54q0 30 32 58q4 -3 12 -16t16 -28t14 -28.5t6 -17.5zM1071 -174q0 -10 -5.5 -18t-17.5 -8q-16 0 -22 10.5t-7.5 25.5t0 30.5t1.5 25.5q25 -6 38 -25t13 -41zM958 -146q0 -21 -6 -27t-28 -6q-23 0 -27 11.5t1.5 26.5t14.5 28.5l11 16.5
q18 -7 28 -20q6 -12 6 -30zM70 -120q0 -23 -7 -25t-15 6.5t-15 22t-7 22.5l17 64h15l2 -16t6 -47q0 -4 1 -12t3 -15z" />
    <glyph glyph-name="three" unicode="3" horiz-adv-x="834" 
d="M814 207q0 -11 -4.5 -24.5t-10.5 -27.5t-10.5 -28.5t-4.5 -26.5q0 -2 1 -13t3 -24t3 -24.5t1 -14.5q0 -1 -4 -6t-9 -11t-9.5 -11.5t-4.5 -7.5v-4q0 -4 6 -15t6 -13q0 -18 -9 -41t-28 -23t-27.5 12t-8.5 28q0 21 12 34t28 31q-3 17 -6 25q-12 25 -32 25q-21 0 -31 -10.5
t-13 -27.5t-2.5 -38.5t0.5 -44.5v-35t2 -18h-42q-22 27 -22 42q0 3 3.5 10t7.5 15.5t7.5 16.5t3.5 13q0 25 -24 31t-49 6q-8 0 -18 -0.5t-21 -1.5q-16 -1 -30 -3q-194 0 -290 54q-39 32 -64 51t-36 25q-1 -1 -7 -8t-16.5 -15.5t-18.5 -8.5q-28 0 -28 44q0 7 7 17.5t7 20.5
q0 11 -6 28.5t-6 25.5q0 25 31 25q42 -19 86.5 -34t90.5 -29q47 -14 90 -21.5t84 -7.5q94 0 132 19q38 18 38 67q0 21 -14.5 44.5t-36.5 42.5t-47.5 31.5t-47.5 12.5h-148q-20 0 -57 9.5t-65 16.5q-4 0 -16 -9.5t-15 -9.5q-18 0 -27.5 23t-9.5 43q0 29 66 44q63 15 109 28
t75 25q57 23 74 33q42 23 42 50q0 11 -10 17t-26 8.5t-34.5 3t-36.5 0.5q-34 0 -56.5 -0.5t-34.5 -1.5q-17 0 -31 -1t-35 -1q-79 0 -114 11q-50 14 -50 50q0 14 39.5 27t94 22.5t112 15.5t94.5 6q144 0 254 -92q92 -76 92 -140q0 -20 -7 -36t-17.5 -30t-22 -25.5
l-20.5 -20.5q23 -15 41 -28.5t33 -25.5q41 -34 55 -63q5 -7 12 -25.5t13 -39t10.5 -38.5t4.5 -25zM150 346q-4 -19 -8 -32t-10 -30h-22q-4 15 -4 34q0 13 1 24t3 26h22q2 0 5 -4t5 -6q8 -10 8 -12zM98 -10q0 -8 -9.5 -15t-24.5 -7q-20 0 -27 14t-6 33t6.5 37.5t11.5 27.5
q8 -3 13.5 1t10.5 0t10.5 -23t14.5 -68z" />
    <glyph glyph-name="four" unicode="4" horiz-adv-x="1100" 
d="M1082 344v-158l-19 -2q-12 -2 -27.5 16t-15.5 36q22 30 22 61q-2 2 -2 7.5t-0.5 11.5t-3.5 11t-11 5q-47 0 -63.5 -23t-16.5 -69v-16q0 -12 1 -15l18 -399q-20 -5 -42 8t-22 30v82q0 5 9 16.5t9 18.5q0 13 -1 22.5t-1 22.5h-54q0 -26 -12 -39.5t-12 -34.5q0 -17 14 -29.5
t14 -29.5l-4 -25l-17 2q-25 3 -31.5 18t-6.5 44v83q-39 30 -69.5 70.5t-37.5 95.5q-2 19 -2.5 33t-1.5 23q-12 93 -49 93h-321q-20 -12 -42 -16.5t-50 -4.5q-31 0 -53 13q-64 36 -73 38q-8 -18 -8 -40q0 -20 5 -38t15 -42q0 -7 -6.5 -10.5t-13.5 -3.5q-49 0 -49 47
q0 4 3.5 20.5t3.5 32.5v4q0 4 -5.5 14t-11.5 22.5t-11.5 25.5t-5.5 24q0 6 20.5 30t48 54.5t56 61.5t43.5 50q4 4 16 18.5t26.5 30t27 29.5t16.5 18q71 71 122 71q27 0 56 -28q20 -18 27 -34t6 -33.5t-7.5 -37t-14.5 -44.5q-27 -76 -43 -92v-20l276 -3q4 40 7 63t3 44v19
q0 7 3.5 37t14 64t30 61t50.5 27q45 0 72 -59q5 -11 13.5 -38.5t17 -61t15 -69t6.5 -62.5q0 -11 13 -23.5t31 -24t35.5 -21t26.5 -15.5q44 -32 44 -68z" />
    <glyph glyph-name="five" unicode="5" horiz-adv-x="908" 
d="M890 561v-45l-24 -3q-22 -3 -30 11t-8 32q0 5 1.5 16.5t3.5 25t3.5 26t1.5 20.5q0 24 -18 24q-2 0 -16 -3t-31.5 -6t-22.5 -3h-430q-14 0 -24 0.5t-18 1.5h-12q0 -2 1.5 -21.5t6 -42t12 -41.5t20.5 -19q2 0 12 2t17 2q14 0 33 -3.5t38.5 -8.5t37.5 -10t31 -9
q67 -18 120 -46.5t88 -62.5q71 -71 71 -166q0 -14 -5.5 -32.5t-13.5 -38t-17.5 -37t-17.5 -29.5q-7 -9 -11.5 -29t-9 -41t-9.5 -39.5t-14 -25.5q-25 12 -28.5 31t-11.5 51q-83 -35 -147 -37q-63 -1 -63 -27q20 -22 23.5 -58t3.5 -82q0 -10 -9 -24q-27 9 -36 23t-9 41v13
t1 11q1 6 1 12.5v13.5q0 43 -20 64.5t-64 33.5q-62 16 -106.5 34.5t-78.5 41.5q-75 50 -75 111q0 22 7.5 34.5t32.5 12.5q27 0 111 -48q42 -24 82 -36.5t80 -12.5q21 0 42.5 21.5t39.5 51.5t29.5 61.5t11.5 52.5q0 26 -11.5 42t-31.5 25t-45 12.5t-52 3.5q-7 0 -22 -1
t-31 -2t-29 -2t-17 -1q-90 0 -126 46q-11 15 -15.5 43t-6 57.5t-1 55t0.5 35.5q0 16 -10.5 27.5t-23.5 20t-23.5 15.5t-10.5 15q0 11 23 19t58.5 13.5t78.5 8.5t83 3q2 0 42.5 4t119.5 4q17 0 39 2t51 2q106 0 214 -28q157 -39 157 -110q0 -11 -10 -24t-18 -18
q16 -11 23.5 -27.5t10.5 -29.5zM718 -132q0 -41 -43 -41q-29 0 -39 19t-10 46q0 14 6.5 35t21.5 21q9 0 20.5 -8.5t21 -21t16 -26.5t6.5 -24z" />
    <glyph glyph-name="six" unicode="6" horiz-adv-x="880" 
d="M854 203q0 -12 -3.5 -30.5t-8.5 -40.5t-11 -44.5t-11 -43.5l31 -150q2 -8 -8 -12.5t-17 -4.5q-24 0 -34 15.5t-10 43.5q0 25 6 52l2 6l6 18q0 8 -13 22t-22 14q-13 0 -22.5 -4t-9.5 -14q0 -11 7.5 -22.5t7.5 -15.5q0 -8 -9 -19.5t-10 -12.5q0 -58 10 -87q5 -11 11 -23
l13 -26q0 -10 -9.5 -18t-25.5 -8q-8 0 -16.5 6t-15 13.5t-11 15t-4.5 9.5q0 8 2 40t2 81q0 27 -19.5 33t-71.5 6q-93 0 -138 6q-46 7 -94 21.5t-94 36.5q-118 57 -176 126.5t-58 143.5q0 70 34 144q14 32 32 61t39 54q30 35 65.5 67t77.5 61q103 73 172 73q59 0 132 -25
q72 -26 128 -67q48 -33 64 -67q12 -23 12 -55v-27q0 -11 1.5 -19.5t8.5 -18.5v-14l-29 -3q-40 -3 -40 28q0 6 2.5 15.5t8.5 15.5q0 22 -16.5 32.5t-38.5 15.5t-43.5 5.5t-32.5 3.5q-73 24 -123 60q-18 12 -32 12q-18 0 -37.5 -21t-38 -50.5t-35.5 -61t-31 -52.5
q50 0 99 -3.5t99 -9.5q97 -12 177 -55q94 -49 139 -129q30 -54 30 -103zM582 218q0 78 -79 144q-72 62 -149 62q-43 0 -54 -7q-14 -8 -14 -31q0 -30 22 -77q23 -49 63 -88.5t73 -56.5q49 -26 96 -26q25 0 34 33q8 24 8 47z" />
    <glyph glyph-name="seven" unicode="7" horiz-adv-x="966" 
d="M939 678q-13 -14 -27 -29t-28 -31q-36 -39 -74 -124l-85 -193q-23 -53 -69 -117q-15 -20 -41.5 -56.5t-64.5 -89.5q-2 -4 -3.5 -15.5t-1.5 -13.5q0 -5 2 -20t3 -17v-2q0 -9 -11 -23t-11 -24q0 -4 3.5 -12.5t7.5 -17.5t7.5 -17.5t3.5 -12.5q0 -15 -6.5 -21.5t-25.5 -6.5
q-20 0 -34 19.5t-14 41.5q0 4 5.5 14t12.5 21.5t12.5 23t5.5 19.5q0 6 -6 17.5t-6 16.5q-25 -14 -25.5 -22t-0.5 -23q0 -8 -24 -23q-17 9 -18 44q-1 16 -11 28.5t-23.5 22t-29 18t-26.5 17.5q-32 30 -32 63q0 8 10 26t22 37t22 36t10 23l227 359v20h-384q-13 0 -29.5 2
t-32 5t-29.5 6t-22 5q-8 -18 -11.5 -32.5t-22.5 -14.5q-5 0 -12.5 16t-15 36t-13 37.5t-5.5 20.5q0 36 108 59q76 16 166 19t172 3q93 0 165 -3t123 -11q187 -27 187 -104zM85 521q0 -13 -13 -20t-27 -7q-16 0 -21.5 11t-5.5 27q0 12 8 31q11 23 20.5 24.5t17 -8.5t13 -26.5
t8.5 -31.5zM461 -116q0 -18 -19 -18t-24.5 8t-9.5 16l6 24q13 -3 32 -12q15 -10 15 -18z" />
    <glyph glyph-name="eight" unicode="8" horiz-adv-x="808" 
d="M777 161q0 -27 -15.5 -44t-33.5 -32t-33.5 -32t-15.5 -43h-29q-3 8 -5 12l-3 6q-4 14 -11.5 15.5t-14 -3.5t-11.5 -13.5t-5 -14.5q0 -2 2.5 -9t5.5 -16.5t5.5 -18.5t2.5 -14q0 -16 -4 -24t-17 -32q0 -3 5 -8t11.5 -10t11.5 -10.5t5 -9.5q0 -20 -32 -20q-12 0 -20.5 11
t-14.5 27.5t-9 36.5t-3 37q0 7 -4.5 18.5t-11.5 22t-16 18t-17 7.5q-8 -2 -14.5 -4.5t-13.5 -4.5q-38 -9 -92 -9q-47 0 -87 10q-76 20 -158 60q-61 30 -87 67q-26 35 -26 85q0 24 8 49t26 45q24 26 44 47t35 37q-19 18 -38 36.5t-35 37.5q-34 38 -34 78q0 50 38 87
q14 13 45 30.5t66.5 35t68.5 31.5t51 20q66 20 129 20v18q11 4 22.5 8.5t12.5 4.5q83 0 167 -49q105 -62 105 -159q0 -6 -3.5 -16.5t-7 -23t-7 -26t-3.5 -25.5q0 -34 7 -68q-12 -3 -13 -3q-7 0 -13.5 10t-13 23t-12 25.5t-11.5 18.5q3 3 -14 -10t-40 -30.5t-45 -34
t-29 -21.5q23 -12 52 -30.5t59 -43t58.5 -53.5t50.5 -61q29 -44 29 -69zM700 -56q0 -23 -25 -23q-17 0 -22 10.5t-5 24.5v16q0 6 7.5 9t17.5 3q18 0 22.5 -15.5t4.5 -24.5zM546 681q0 30 -19 36.5t-45 6.5q0 -1 -4.5 -19t-12 -39.5t-16 -39.5t-17.5 -18q-20 0 -23 8.5
t0.5 21t10 26t6.5 23.5l-18 11q-19 -14 -49 -34t-58.5 -42.5t-49.5 -44t-21 -37.5q6 -3 17.5 -9l23 -12t20.5 -10.5t10 -4.5q18 0 124 64l21 10.5t41.5 24.5t40.5 35t18 43zM488 142q0 54 -36 85t-96 57q-20 -14 -33 -22.5t-18 -12.5q-42 -33 -42 -51q0 -36 37 -60t118 -24
q29 0 50 6q20 5 20 22z" />
    <glyph glyph-name="nine" unicode="9" horiz-adv-x="774" 
d="M748 574l-18 -266q0 3 -3 -14t-7.5 -44.5t-10 -60.5t-10 -61.5t-7 -47t-1.5 -16.5q-14 -34 -25.5 -66t-11.5 -54q-4 -6 -12 -16.5t-8 -16.5q0 -14 6 -30.5t4 -14.5q0 -14 -10.5 -18t-28.5 -4q-16 0 -23.5 11t-7.5 25q0 12 5 20.5t10.5 18t10.5 21.5t5 30q0 28 -11 38.5
t-26 12t-31.5 -2.5t-27.5 -4q-28 0 -55 136v4q0 16 3 40.5t6.5 47t6.5 38t3 13.5q-41 5 -64 7.5t-28 3.5q-97 12 -103 12q-13 0 -21 -10.5t-15.5 -22.5t-15.5 -22.5t-20 -10.5q-16 0 -24 4t-8 18q0 -2 0.5 4t1.5 14t1.5 14.5t0.5 5.5q0 27 -10.5 45t-32.5 36q-13 12 -30 30
t-37 43q-46 56 -46 72q0 50 29 99q38 66 119 109q98 52 250 52q26 0 50 -2t44 -6q16 -4 31.5 -9t34.5 -11q6 0 11.5 4.5t12 10.5t15.5 10.5t22 4.5q60 0 87 -77q20 -56 20 -147zM221 205q0 -17 -23 -17q-8 0 -15 4.5t-14 10.5v23q7 2 16 3t17 -0.5t13.5 -7t5.5 -16.5z
M532 -58q-4 -10 -10 -20.5t-15 -10.5q-17 0 -25 22t-9 45q5 4 12.5 11t12.5 7q22 0 28 -14t6 -40zM550 654q0 12 -11 23.5t-27 20t-32.5 14t-27.5 5.5q-57 0 -130 -70q-71 -69 -71 -115q0 -14 9 -26t22 -21t28.5 -14.5t27.5 -5.5h123q12 8 27 13q12 6 18 10.5t10 14t7 27.5
t11 50l4 18.5z" />
    <glyph glyph-name="colon" unicode=":" horiz-adv-x="370" 
d="M307 602q0 -18 -14.5 -31t-36 -21.5t-46.5 -12t-47 -3.5q-57 0 -99 63q-38 56 -38 105q0 11 9 20t22.5 15t28 9.5t24.5 3.5q77 0 139 -52q58 -51 58 -96zM347 156q-7 -23 -15 -51t-15 -48t-12 -25t-5 19h-5q-3 0 -17 -1t-30.5 -1.5t-31.5 -1.5t-18 -1q-50 8 -72 45
t-22 93q0 20 6 39.5t17 35t27 25.5t36 10q36 0 88 -31q69 -42 69 -107z" />
    <glyph glyph-name="semicolon" unicode=";" horiz-adv-x="410" 
d="M322 511q0 -20 -16.5 -34.5t-40 -23.5t-50 -13.5t-46.5 -4.5q-52 18 -71 33q-72 52 -72 144q0 14 9.5 23.5t23.5 15.5t30.5 8.5t30.5 2.5q78 0 143 -58q59 -51 59 -93zM384 82q0 -29 -58 -96q-65 -74 -117 -74q-32 0 -45 10q-10 9 -11 20t4 22t14 21t17 16v13
q-49 11 -83.5 45t-34.5 78q0 18 15 33t36.5 26.5t45 18t39.5 6.5q72 0 124 -37q54 -39 54 -102z" />
    <glyph glyph-name="less" unicode="&#x3c;" horiz-adv-x="897" 
d="M547 156q-6 -2 -23 -8t-35.5 -16t-32.5 -22.5t-14 -28.5q0 -5 1.5 -14t3.5 -18t3.5 -15.5t1.5 -5.5q0 -16 -22 -16q-8 0 -21 5.5t-25 15t-21 23t-9 29.5q0 19 9.5 31.5t20.5 23t20.5 22t9.5 28.5q0 26 -22.5 36.5t-53.5 23.5l-253 70v84l728 206v-90l-577 -158l577 -159
v-91l-205 60q-2 0 -25 -7t-36 -9z" />
    <glyph glyph-name="equal" unicode="=" horiz-adv-x="708" 
d="M679 518q0 -17 -2.5 -27t-7.5 -17t-13.5 -13t-19.5 -15v-2q4 -10 7.5 -22.5t3.5 -19.5q0 -15 -5 -24t-16 -20l-8 -8q-8 14 -17 18q-5 0 -9 12t-8 27t-10 27t-16 12q-8 0 -28 -12q-16 -8 -16.5 -16t5.5 -16.5t13.5 -16.5t7.5 -17q0 -16 -9.5 -22t-23.5 -6q-29 0 -29 28
q0 11 6 27t10 23q-12 3 -40 3h-20.5t-19.5 -1q-10 -1 -22.5 -1h-27.5q-120 0 -186 27q-56 23 -90 67q-2 3 -11 9t-18.5 14t-17 17.5t-7.5 18.5q0 17 19.5 26.5t52 14.5t73.5 6t85 1h43q7 0 35.5 0.5t78.5 1.5q49 2 70.5 2t14.5 0q90 0 133 -31q40 -30 40 -75zM679 223
q0 -18 -2.5 -28.5t-7.5 -17t-13.5 -12.5t-19.5 -15v-34q0 -27 -6 -52t-25 -40h-13q-8 16 -8 23q0 8 5 19q6 11 3.5 25.5t-8.5 27.5t-13.5 22t-12.5 9q-11 0 -28 -10q-16 -10 -16.5 -18.5t5.5 -16.5t13.5 -16t7.5 -17q0 -16 -9.5 -22t-23.5 -6q-29 0 -29 28q0 11 6 27.5
t10 23.5q-12 3 -38 3h-21t-21 -1q-11 -1 -24 -1h-28q-118 0 -185 26q-55 22 -89 67q-2 3 -11 9t-18.5 14t-17 17.5t-7.5 18.5q0 17 20 26.5t52.5 14.5t73.5 6t84 1h43q7 0 35.5 0.5t78.5 1.5q49 2 70.5 2t14.5 0q90 0 133 -31q40 -28 40 -74zM540 -4q0 -49 -50 -49
q-46 0 -46 23q0 16 14 36t28 20q17 0 34 -8q20 -9 20 -22z" />
    <glyph glyph-name="greater" unicode="&#x3e;" horiz-adv-x="897" 
d="M859 404v-84l-254 -70q-15 -4 -35.5 -13t-25.5 -16q-14 -14 -14 -33q-7 -10 1.5 -20t21.5 -22t25 -27t12 -34q0 -6 -5 -16t-11.5 -19t-13 -16.5t-9.5 -9.5q-17 -12 -38 -12q-23 0 -23 16q0 2 2 10.5t4 18.5t4 17.5t2 8.5q0 16 -14 28t-34 21t-42 15.5t-38 12.5
q-26 6 -39 12l-204 -60v91l577 159l-577 158v90z" />
    <glyph glyph-name="question" unicode="?" horiz-adv-x="716" 
d="M696 600q0 -14 -6.5 -36.5t-16 -46t-20 -45.5t-18.5 -35q-23 -36 -60 -57.5t-83 -27.5q-38 -4 -38 -15q12 -19 23 -50.5t11 -58.5q0 -5 -3.5 -17t-8.5 -25t-12 -22.5t-14 -9.5q-5 0 -17 8q-12 6 -19 8t-12.5 2.5t-12.5 -0.5t-19 -1q-52 0 -96 50q-54 60 -54 159
q0 9 23 26.5t52 36.5t56.5 35t35.5 24q49 41 69 66q32 41 32 82q0 28 -32.5 33t-77.5 5q-15 0 -31 -1t-33 -3t-33 -3.5t-53 -6.5q-20 -3 -32.5 -12.5t-20.5 -19.5t-13.5 -18t-11.5 -8h-10q-20 10 -28 -3.5t-8 -26.5q0 -18 6 -29.5t9.5 -18t0 -8.5t-21.5 -2q-23 0 -29.5 16.5
t-6.5 42.5v43q0 2 -6 7.5t-13 14t-13 19t-6 22.5q0 41 80 69q96 36 254 36q14 0 35 -0.5t49 -1.5q44 -2 54 -6q48 -9 122 -74q78 -69 78 -116zM171 598v-26q-5 -2 -9 -2h-6q-6 0 -19 10v21zM547 -35v-13q0 -11 1 -14q0 -11 -7 -13t-17 -2q-12 0 -22 5t-10 16q0 1 1.5 8
t3.5 15.5t4 15t2 7.5q0 11 -15 11q-32 0 -43.5 -10.5t-11.5 -39.5l-19 -9q-21 27 -25 36q-1 10 -9 16t-19 11t-23.5 9t-23.5 10q-72 39 -72 90q0 9 9 16t21.5 12.5t27 8.5t26.5 3q34 0 66 -9t69 -9q37 -38 61.5 -77.5t24.5 -93.5z" />
    <glyph glyph-name="at" unicode="@" horiz-adv-x="1560" 
d="M1321 -119q-29 -14 -59.5 -28t-51.5 -24q-45 -22 -61 -25q-47 -10 -84 -16t-65 -9q-13 -1 -42.5 -1.5t-64.5 -3t-69 -9.5t-56 -23q16 -20 27 -39t43 -19q8 0 22 2t27.5 4.5t24 4.5l10.5 2q17 0 18 -13q0 -20 -33 -26t-77 -6h-22q-55 0 -70 4q-35 8 -44 28v34q0 9 -9 19.5
t-21 20t-24.5 15.5t-19.5 6q-16 0 -18.5 -10.5t-2.5 -21.5t-9.5 -16t-21.5 -5q-5 0 -21.5 3.5t-35.5 7.5t-35.5 7.5t-21.5 3.5q-14 0 -24.5 -5t-10.5 -19l4 -24q0 -10 -10.5 -14t-20.5 -4q-22 0 -48 16.5t-26 40.5q0 23 16 28t42 5q5 0 22 -1t36 -1t33.5 2t14.5 8q0 8 -9 16
t-21 12q-22 9 -34 14.5t-23.5 11t-26.5 12.5t-42 19q-64 28 -115 71q-48 40 -82 90q-32 48 -48.5 99t-16.5 109q0 68 24 135t70 125q95 122 250 191q40 17 87.5 31t102.5 24q111 20 221 20q96 0 183 -12q84 -13 168 -42q72 -25 129.5 -59.5t101.5 -82.5q86 -94 86 -208
q0 -140 -145 -256q-144 -114 -326 -114q-50 0 -93.5 11t-54.5 36l-9 20q-48 -30 -105 -48.5t-113 -18.5q-112 0 -199 66q-92 72 -92 171q0 123 134 227q133 104 275 104q31 0 60.5 -5t56.5 -13q26 -8 51 -21t49 -33l20 58h172l-112 -350q-22 -67 -22 -76q0 -10 13 -15t24 -5
q17 0 43.5 9t45.5 19q82 39 130 102t48 134q0 173 -248 260q-61 21 -127 32.5t-141 11.5q-171 0 -311 -54q-141 -53 -220 -152q-79 -98 -79 -214q0 -32 5 -58.5t15 -50.5q10 -25 24 -48.5t35 -46.5q37 -40 92.5 -72.5t127.5 -52.5t154.5 -31t174.5 -11q181 0 320 43
q125 38 200 108h175q-12 -16 -25 -25q-20 -15 -28 -37t-8 -46q0 -36 20 -68q-2 2 4 -7t16.5 -22.5t24 -28t27.5 -24.5q20 -15 15.5 -24t-19 -14t-32.5 -6.5t-24 -1.5q-16 0 -26 2.5t-18.5 9t-18 17.5t-23.5 27q-10 13 -10 28q0 4 3.5 15.5t7.5 23.5t7.5 23t3.5 15
q0 21 -18 31t-34 14h-8q-14 0 -28 -16t-23 -27zM744 446q-15 -5 -34 -23t-19 -40q0 -10 5.5 -24t12.5 -28l12.5 -25t5.5 -15q0 -1 -0.5 -4.5t-1.5 -8.5q-3 -32 -9 -53t-43 -21q-5 0 -14 1t-18 3.5t-16 7t-7 12.5q0 1 8 12t17 26t17 30t8 24q0 14 -8 25t-19 18.5t-23 11.5
t-20 4q-10 0 -25 -6.5t-29.5 -17t-25 -25t-10.5 -31.5t10 -38t10 -44q0 -61 40 -96q42 -36 100 -36q43 0 86.5 18.5t77.5 44.5q39 28 65.5 77.5t26.5 98.5q0 59 -44 95q-42 35 -112 35q-8 0 -24 -8z" />
    <glyph glyph-name="A" unicode="A" horiz-adv-x="860" 
d="M826 180v-10h-16v32q16 -15 16 -22zM838 258q0 -2 -5 -18t-7 -24h-16q-7 20 -15.5 27t-24.5 7q-20 0 -31 -5t-11 -27q0 1 7.5 -25.5t17 -59.5t17 -61.5t7.5 -31.5q0 -14 -6.5 -26t-15 -22t-15 -18t-6.5 -15l28 -69v-24l-10 -4q-10 7 -17.5 21.5t-12.5 32.5t-9.5 37
t-8.5 35q-20 9 -37.5 28t-31 43t-24 49.5t-17.5 47.5q-16 54 -35 54q-7 0 -42.5 -2.5t-97.5 -9.5q-126 -13 -135 -17q-2 -7 -14.5 -30t-29 -50.5t-34 -55t-29.5 -44.5q-25 11 -43 11t-28 -11t-16 -27t-9 -34.5t-7 -34.5q-6 -8 -24 -12.5t-28 -22.5h-13v85q0 11 10 41.5
t23 66.5t26 69t19 49q26 69 44.5 113t40.5 90q14 31 30 61t32 61q10 18 22 41.5t28 51.5q8 13 16.5 27.5t15.5 27.5q34 66 48 96q10 22 22.5 41t27.5 19q16 0 24 -10t25 -10h21q7 0 14 -2.5t12 -5.5q15 -8 34.5 -41t38 -74.5t33 -81.5t17.5 -61q2 -14 8 -34t13.5 -42t15 -45
t12.5 -43q6 -22 31 -33t52.5 -19t50 -18.5t22.5 -31.5zM691 -49q0 -8 -7 -23q-4 -14 -9 -13t-8.5 8.5t-6 19t-2.5 19.5q0 9 8 12.5t16 5.5q1 -3 2 -5t3 -9q4 -8 4 -15zM691 -170q0 -9 -9 -18h-12q-22 21 -22 36q0 18 6.5 22t15 -0.5t15 -15.5t6.5 -24zM104 -156l-27 -2
q0 2 6.5 12.5t7.5 11.5q7 -7 13 -22zM338 288l198 21q0 -1 -4.5 18.5t-11 49.5t-14 65t-14 65t-11.5 50.5l-5 20.5q-2 -5 -15 -8q-11 -4 -21.5 -23t-19.5 -42.5t-15.5 -45.5t-10.5 -31q-52 -134 -56 -140z" />
    <glyph glyph-name="B" unicode="B" horiz-adv-x="698" 
d="M670 246q0 -90 -111 -160q-19 -12 -51 -33t-60 -39q-14 9 -25 10.5t-23 -0.5t-25.5 -7t-31.5 -9q-21 -5 -40.5 -8t-34 -10t-23.5 -21.5t-9 -42.5q0 -8 8 -21t8 -23v-8q0 -3 -1.5 -6.5t-2.5 -5.5h-30q1 0 1 4.5v8.5v21q0 3 -0.5 9.5t-0.5 16.5v12q0 3 -4.5 9.5t-11.5 12.5
t-13.5 11t-11.5 5q-23 0 -30 -14.5t-7 -36.5q0 -23 1 -36t1 -23v-15t-2 -17q0 -20 -6 -22.5t-13 4.5t-13 19.5t-6 24.5q0 14 3.5 30.5t13.5 32.5q0 15 -10.5 36.5t-10.5 32.5q0 8 8 17t18 19t18 19t8 17q0 22 -22 52q-24 33 -24 74q-19 9 -31 -5t-21 -31h-28q0 6 -2 20
t-2 20q0 57 24 76q27 23 37 31.5t11 10.5q2 6 2 20q0 18 -1 33.5t-1 31.5v75q0 8 3.5 38.5t9.5 69t15 78.5t20 67q21 55 56 55q19 0 31.5 -5t29.5 -15q18 8 41 16.5t47.5 15t47.5 11t40 4.5q61 0 117 -37q55 -37 55 -82q0 -22 -9 -51t-28 -59q-21 -34 -41.5 -61t-51.5 -71
q55 -27 91.5 -49.5t55.5 -38.5q48 -45 48 -108zM467 -41q0 -15 -6.5 -20t-13.5 -4t-13.5 7t-6.5 13q0 10 9 25h18q4 0 8.5 -8.5t4.5 -12.5zM64 93q-3 -6 -4 -9t-2 -4h-22l-12 9v42h24q8 -11 12 -21q2 -4 3 -8t1 -9zM272 496l117 187v11h-23q-24 -13 -40.5 -22t-26.5 -18
t-14.5 -20t-4.5 -29q0 -17 -8 -31v-78zM448 310q0 22 -10 35.5t-26 28.5h-14q-5 -8 -52 -39q-87 -57 -89 -71q-3 -16 -4.5 -35t-2.5 -37.5t-1.5 -35.5t-0.5 -28v-22q96 40 148 97t52 107z" />
    <glyph glyph-name="C" unicode="C" horiz-adv-x="728" 
d="M633 398q0 -18 -26 -18q-15 0 -26 10t-11 26q4 4 7 12t3 22l18 2q7 1 13 -6t11 -16.5t8 -19t3 -12.5zM706 158q0 -3 -8 -17t-18 -30.5t-18 -33.5t-8 -26q0 -3 4 -14t8.5 -24t8.5 -24.5t4 -14.5q0 -8 -8.5 -12t-14.5 -4q-18 0 -24 14.5t-6 34.5q0 12 3.5 35.5t3.5 29.5
q-26 -14 -33.5 -35t-7.5 -59q0 -17 11 -41t11 -45q0 -9 -6.5 -13.5t-14.5 -4.5q-14 0 -29 16.5t-15 29.5q0 16 15 37q9 12 11 20t0 14.5t-5.5 14t-5.5 18.5q-3 2 -16 -1.5t-30.5 -8.5t-37.5 -9.5t-38 -4.5q-25 0 -51 4l-65 10q-4 0 -10 -7q-5 -6 -11.5 -5t-12.5 5t-10 8.5
t-4 6.5q-8 17 -29 24.5t-45 21.5q-38 21 -65 44t-48 48q-61 73 -61 156q0 64 34 132q9 18 24.5 40t33.5 45t36 44.5t32 38.5q32 37 66 67t76 55q98 58 200 58q26 0 52 -14t47 -35.5t34.5 -49t13.5 -54.5q-6 -24 -10 -41.5t-7 -27.5q-15 -64 -24 -115h-26q-6 0 -13 15t-7 22
l3 7.5t7 17t7 18.5t3 13t-47 18q-47 12 -47 94l-9 4q-14 6 -41 -13t-56.5 -48.5t-56 -61t-39.5 -51.5q-28 -45 -43.5 -93.5t-15.5 -100.5q0 -56 23 -96q32 -52 98 -52q15 0 49.5 10t72 22t70 22t42.5 10q14 0 30.5 -4t30.5 -11.5t23.5 -18t9.5 -24.5zM298 -8l12 -26
q0 -14 -8 -20t-20 -14q-16 16 -16 26q0 3 4 13t8 21h20z" />
    <glyph glyph-name="D" unicode="D" horiz-adv-x="702" 
d="M684 454q0 -34 -2.5 -66.5t-8.5 -61.5q-6 -31 -15.5 -55.5t-19.5 -42.5q-18 -32 -24 -58q-3 -14 -5 -28t-2 -28q0 -5 2 -17.5t4.5 -26t4.5 -25t2 -15.5q0 -16 -25 -16q-21 0 -21 21q0 -1 0.5 6.5t1.5 17t1.5 18t0.5 9.5q0 7 -0.5 14.5t-1.5 15.5q-3 10 -12 30
q-10 -5 -33 -21.5t-48 -33.5t-46 -29t-27 -8q-7 4 -22 1.5t-34 -7t-39 -9t-37 -4.5h-13q-6 0 -9 1t-4 1l14 -111q-7 -17 -15.5 -39.5t-14.5 -22.5q-27 0 -27 17q0 12 -2 17.5t-4.5 9t-4.5 7.5t-2 13q0 2 4.5 17t4.5 23q0 21 -10.5 28t-32.5 7q-11 0 -22.5 -1t-25.5 -1
q-15 0 -30.5 7.5t-28.5 20t-21 28t-8 31.5q0 13 8 17.5t11 10.5v6v15t-1 13q-4 40 -5.5 72.5t-1.5 57.5q0 16 1.5 31.5t1.5 31.5q0 15 4.5 49t10 70.5t10.5 69t7 44.5q4 26 8 47t8 41t9 42t13 50q3 26 8 33t26 7q18 0 31 -8q20 -12 30.5 -15t19 -1t18 7t27.5 9q16 4 35 6
t39 2q72 0 133.5 -24t109.5 -74q97 -100 97 -244zM452 -28q0 -13 -19 -13q-14 0 -17 5t-10 12l4 50q14 -10 28 -25t14 -29zM472 538q0 23 -3 49.5t-9 49t-15 37.5t-21 15q-29 0 -74.5 -22.5t-97.5 -50.5q0 -29 1 -62.5t2 -71.5q1 -51 1.5 -75t0.5 -21q0 -44 8.5 -94
t25.5 -90q106 29 151 158q30 82 30 178z" />
    <glyph glyph-name="E" unicode="E" horiz-adv-x="762" 
d="M580 601q0 -12 -22 -12q-20 0 -20 21q0 5 4 8q10 10 24 3t14 -20zM740 90q0 -8 -8.5 -24t-18 -32.5t-18 -30.5t-8.5 -17q0 -6 4 -19t10 -26.5t12.5 -26t10.5 -16.5v-25l-18 -2q-12 -1 -17.5 3t-9 11t-5.5 14t-6 10q-32 11 -46 18.5t-14 36.5q0 10 2 18q14 29 -10.5 37.5
t-61.5 8.5q-52 0 -82.5 -6.5t-34.5 -7.5q-49 -6 -74 -6q-8 -2 -17 -2h-21h-21q-17 0 -22 1q-32 0 -49 -6t-17 -25q0 -6 5 -15t11 -18t11 -18.5t5 -17.5q0 -14 -4 -20t-11 -17h-19q-6 8 -10 16t-4 19q0 8 5 26.5t11 29.5q0 8 -28 24.5t-62 35.5t-62 38.5t-28 33.5q0 1 6 6.5
t13 12t13 12t6 6.5v3q-1 21 -4 59t-6 65v164l44 268q-8 16 -21 26t-13 29q0 20 28.5 31t70 16.5t87 7t78.5 1.5q32 0 68 -1t77 -3q89 -5 149 -12q28 -4 43 -6t18 -2q42 -8 42 -24q0 -21 -9 -35.5t-20.5 -29t-20.5 -32.5t-9 -45l-18 -2q-18 -2 -18 12q0 1 0.5 9t1.5 18
t1.5 18t0.5 9q-7 4 -14 4q-2 0 -9 -5.5t-16 -12.5t-18.5 -12.5t-15.5 -5.5q-2 0 -27 14q-4 4 -27 4t-58 -1.5t-78.5 -3t-88.5 -1.5q-13 0 -16.5 -22t-2.5 -52t3.5 -60t2.5 -45q12 -2 16 -4t24 -2q9 0 45.5 3.5t80.5 8t85 8t60 3.5q23 0 50.5 -4t51.5 -13t40.5 -24t16.5 -37
q0 -35 -23 -70q-4 -6 -13 -16t-9 -24q0 -2 1 -8t2 -12.5t2 -12t1 -6.5q0 -14 -19 -14q-12 0 -20 5t-8 16q0 7 6.5 26.5t6.5 25.5q0 27 -19 27q-20 0 -32.5 -5t-12.5 -20q0 -3 2.5 -11.5t3.5 -15.5q-8 -2 -13 -2q-13 -3 -16 3t-3 18q0 20 1 23t1 9q0 14 -20 14q4 0 -16.5 -3
t-52.5 -7.5t-70 -9.5t-69.5 -9.5t-50.5 -7.5t-13 -3v-148h254q48 0 113 -18q93 -27 93 -68zM670 -38q0 20 -3.5 26.5t-9 6.5t-13 -4.5t-16.5 -6.5q5 -5 12 -15t13 -18t10.5 -11t4.5 6q0 8 2 16z" />
    <glyph glyph-name="F" unicode="F" horiz-adv-x="820" 
d="M666 578v-19q-15 -3 -19 -3q-12 0 -16 4.5t-5 10.5t0.5 12.5t1.5 11.5h20zM792 696q0 -4 -10 -17.5t-22.5 -29.5t-22.5 -31t-10 -22q0 -8 10.5 -19t10.5 -25q0 -13 -8.5 -18.5t-20.5 -5.5q-20 0 -28.5 11.5t-8.5 30.5q0 1 0.5 9t1 19t1 21.5t0.5 16.5l-9 6
q-15 -24 -24.5 -23.5t-17.5 10.5t-16.5 22.5t-21.5 12.5q-3 0 -27 -2.5t-58.5 -6.5t-74 -9t-74 -10t-58.5 -8.5t-28 -5.5v-166q90 0 149 -2t99 -6q83 -8 130 -42q46 -33 46 -105v-36q-2 -22 -2 -31.5t0 -7.5q-16 -3 -35 8t-19 50v6l-5 24l-25 -20q-15 4 -28.5 16t-23.5 12
q-29 -3 -53.5 -4.5t-43.5 -3.5q-57 -6 -104 -8.5t-85 -2.5v-264q0 -13 -11 -28t-24.5 -29.5t-24.5 -28t-11 -23.5q0 -8 5 -18t11.5 -20t11.5 -19t5 -13q0 -25 -27 -25q-13 0 -23 16.5t-17 36.5t-11 37l-4 17q-5 -16 -4.5 -21t0.5 -19q0 -6 -4 -18l-13 -6q-8 6 -11 8.5
t-4.5 5t-3 6.5t-6.5 12v66q0 4 18 4q14 0 22.5 -9t13.5 -15.5t6.5 -5t1.5 23.5q0 9 -49 31q-26 11 -41.5 26.5t-23.5 34.5q-17 37 -22 61q-6 27 -6 71q0 56 7 114t21 119q16 69 29.5 129.5t26.5 111.5q-14 12 -34 33.5t-20 42.5q0 18 28.5 28t71 15t91.5 6t89 1
q125 0 202.5 -4t123.5 -12q126 -22 126 -86z" />
    <glyph glyph-name="G" unicode="G" horiz-adv-x="1012" 
d="M988 244v-104l-18 -2q-16 -2 -24 8t-8 25q0 25 16 57q-15 8 -45.5 5t-61 -9.5t-53.5 -14t-24 -7.5q38 -36 38 -76q0 -3 -4 -14t-9 -23.5t-9.5 -22.5t-5.5 -10q0 -9 9 -22.5t20 -26.5t20 -24t9 -15q0 -14 -10 -17t-26 -3q-34 0 -45 20t-11 50q0 5 1 14l2 18t2 16.5t1 9.5
q-19 -10 -24.5 -38t-5.5 -56q0 -21 1.5 -43.5t5.5 -46.5q3 -17 4.5 -29.5t4.5 -27.5q-27 -5 -46 7t-19 44q0 7 4 19t9.5 24t9.5 21.5t4 12.5q0 12 -7.5 23.5t-19.5 20t-27 13t-30 2.5l-140 -19q-6 -1 -14 -1.5t-16 -0.5q-25 0 -53 4.5t-56 8.5q-6 0 -27 -36
q-12 -12 -8 -17.5t14 -13t20 -20.5t10 -39l-11 -22h-17q-14 14 -24 30.5t-10 35.5q0 10 5.5 26.5t5.5 27.5q0 16 -17 28t-44 25q-33 15 -53 26t-25 15q-32 26 -57 54t-39 56q-23 49 -23 111q0 52 33 118q33 67 110 161q62 74 124 126q52 44 100 66t88 22q84 0 178 -50
q109 -57 135 -145q2 -10 3 -15.5t1 -15.5q0 -18 -4 -32t-11 -30q0 -7 6 -13t13 -12t13 -12.5t6 -14.5q0 -11 -12.5 -22t-21.5 -11q-56 0 -56 49q0 10 3 20.5t7 23.5q8 22 3 30t-47 10q-53 2 -92 41q-29 29 -54.5 61.5t-35.5 49.5q-18 -9 -46.5 -44t-59 -77.5t-57 -85
t-39.5 -67.5q-32 -60 -49 -114t-17 -97q0 -21 10.5 -39t28 -31.5t39 -21t42.5 -7.5q9 0 29.5 2t42 6.5t37.5 11t16 14.5q-32 21 -60.5 44t-28.5 51q0 17 35.5 31t86 23.5t106.5 15t98 5.5q34 0 69 -3t71 -11q108 -21 108 -68zM408 -146q2 -10 3.5 -14t0.5 -6.5t-5.5 -4.5
t-14.5 -9l-28 19v59h23q12 -12 16.5 -20t4.5 -24z" />
    <glyph glyph-name="H" unicode="H" horiz-adv-x="960" 
d="M934 175q0 -21 -12 -33h-34q0 8 -3 20t-3 19q0 14 7 27q17 28 25 22t15 -20q5 -15 5 -35zM934 378q0 -17 -7 -27.5t-9 -22.5q8 -22 12 -38t-18 -16q-24 0 -24 34q0 4 4 14t6.5 20.5t1 19t-11.5 8.5q-47 0 -64 -18.5t-17 -61.5v-150q0 -39 -65 -72q-67 -33 -67 -60
q0 -14 14 -64q4 -12 8.5 -24t4.5 -21t-6.5 -15t-25.5 -6q-20 0 -28 14t-9 33t2.5 38t5.5 30q7 27 10.5 41t3.5 23t-4 16.5t-13 22.5q-14 28 -18 40q-4 17 -7.5 45t-7.5 56.5t-10.5 52t-16.5 32.5q-10 -4 -52.5 -11t-91 -13.5t-90.5 -13t-50 -10.5q0 -45 -1 -76.5t-4 -66.5
q-1 -15 -7 -38.5t-6 -49.5q0 -62 6 -107q2 -11 5.5 -39.5t6.5 -54.5q-8 -1 -14 -1.5t-8 -0.5q-38 0 -38 50q0 -3 3.5 11.5t8 33.5t8 37.5t3.5 23.5q0 15 -6 19t-15.5 3t-20.5 -4.5t-21 -3.5q-81 0 -122 62q-35 55 -35 145l31 309q2 16 6 32t7 33q2 11 7.5 39t11.5 56.5
t10 50.5t4 21q5 22 28 30t69 8q22 0 38.5 -16t28 -40.5t17 -54.5t5.5 -57v-140q0 -10 -4.5 -31t-4.5 -26q0 -21 25 -21q16 0 54.5 4t81 8.5t79.5 9t49 5.5q24 3 24 27v18t-1 18q-2 19 -0.5 40.5t4.5 42t6 38.5t5 29q16 113 20 122q15 24 60 24q64 0 78 -96q4 -26 8 -60
t8 -62q2 -16 6 -32.5t7 -40.5q3 -19 4 -30.5t2 -14.5q0 -2 19 -9.5t42.5 -18t42.5 -24.5t19 -30zM767 -14q0 -13 -1 -22t-1 -38h-25q-9 20 -9 30.5t3.5 21t7.5 25t4 40.5q12 -6 17 -9.5t6 -8.5t-0.5 -14t-1.5 -25z" />
    <glyph glyph-name="I" unicode="I" horiz-adv-x="292" 
d="M263 56q0 -26 -13 -40.5t-36 -14.5q-60 0 -119 49q-75 62 -75 157q0 32 3 60.5t5 54.5l24 248q0 98 22 168q21 68 58 68q22 0 43.5 -23t39 -54.5t28.5 -66t11 -56.5q0 -48 0.5 -100.5t1.5 -109.5q2 -67 3 -112.5t2 -81.5t1.5 -69.5t0.5 -76.5zM254 -162q-19 -11 -34 -11
q-11 0 -19.5 4.5t-8.5 12.5q0 13 14 33q4 6 1.5 10t-7 8t-9.5 10.5t-5 17.5q0 3 2.5 11.5t7 16.5t9.5 14.5t10 6.5q13 0 20 -8.5t7 -21.5q0 -15 -3.5 -25.5t-7 -18t-5 -14t3.5 -14.5q10 -16 24 -32z" />
    <glyph glyph-name="J" unicode="J" horiz-adv-x="590" 
d="M562 438v-252q0 -7 -11 -38.5t-24.5 -67.5t-26 -66t-16.5 -34q-8 5 -13.5 12.5l-11 15t-12 13t-15.5 5.5l-12.5 -4t-30 -9.5t-35 -9.5t-26.5 -4q-16 0 -41 5.5t-57 17.5q-87 33 -145 88q-15 -10 -19 -19.5t-4 -28.5q0 -25 -4 -36q0 22 -5 41t-11 37t-11 35.5t-5 36.5
q0 40 30 73t76 33q36 0 81 -75q45 -76 122 -76q17 0 25.5 18t11.5 49.5t3 75v94.5q0 65 -3 152q-2 46 -3 85t-1 69q0 58 17.5 92t64.5 34q23 0 40 -16t28 -41t16.5 -55.5t5.5 -59.5q0 -14 3.5 -38t7.5 -51.5t7.5 -54.5t3.5 -46zM518 -127q0 -15 -24 -15q-18 0 -25.5 10
t-9.5 23t-0.5 26.5t1.5 20.5q8 27 22 27q26 0 33 -49q3 -20 3 -43zM132 14v-72q-15 3 -26 17l4 74q8 -5 12 -8t10 -11zM100 -89v-19l-18 -2q-7 -1 -11.5 5t-7.5 14.5t-4 19t-1 18.5q0 20 4 29q3 10 8.5 1.5t11.5 -22.5t11 -28t7 -16z" />
    <glyph glyph-name="K" unicode="K" horiz-adv-x="794" 
d="M614 459q-2 -8 -4.5 -17.5t-2.5 -14.5q0 -13 5 -21l-32 -4v16v26q0 31 9 34.5t23 -10.5q2 -6 2 -9zM592 375l22 -17q-3 -8 -2.5 -12t-4.5 -8h-11q-5 0 -10.5 9.5t-5.5 12.5q0 4 4 8l4 4t4 3zM768 -10q0 -5 -3.5 -8t-5.5 -8h-15q-9 18 -16.5 24t-27.5 6t-33.5 -11.5
t-18.5 -21t-6 -11.5q0 52 -64 70q-104 32 -145 61q-33 25 -61.5 50t-53.5 51q-55 56 -76 65v-47q3 -8 8 -35t10 -57.5t8.5 -55.5t3.5 -29q2 -5 3 -8.5t1 -6.5q0 -23 -7 -28t-18.5 -2t-25 9.5t-27.5 6.5q-74 0 -113 49q-32 41 -43 120q-6 48 -6 149q0 39 -3 100q-3 57 -3 102
q0 16 1 38t4 50q3 31 6 58.5t8 52.5q7 35 21.5 56.5t45.5 21.5q19 0 33.5 -12t25 -30.5t16 -41.5t5.5 -45q0 -19 1.5 -42t2.5 -50l1.5 -52.5l0.5 -17.5l10 -7q22 20 51 53q30 36 61.5 67.5t75.5 69.5q14 12 23 21.5t15 13.5q48 36 78 36q40 0 63 -34t27 -72q2 -15 3 -29
t1 -25v-44q-2 -14 -2.5 -22.5t-0.5 -7.5l-11 -9h-16q-13 17 -13.5 33t-0.5 33q0 14 -10 25q-14 -13 -26 -30t-22 -34t-18.5 -31t-14.5 -21q-19 -21 -36.5 -38.5t-32.5 -31.5q-31 -29 -31 -39q0 -3 17.5 -20.5t42.5 -42t53.5 -51.5t51.5 -48t35.5 -32t4.5 -3q13 -11 33.5 -29
t42 -37t41 -36.5t30.5 -27.5q41 -39 41 -70zM768 -112q0 -18 -22 -18q-18 3 -18 20q0 34 14.5 35t20.5 -16q5 -18 5 -21zM666 -84v-24h-12q-1 0 -3 8t-2 10q-2 16 3.5 15t13.5 -9zM668 -131v-44h-14l-12 19q4 9 6.5 14l5.5 11h14zM282 -112v-13q-16 -3 -31 4t-15 30
q0 4 4 19q8 16 15 13t13 -13.5t9.5 -23.5t4.5 -16z" />
    <glyph glyph-name="L" unicode="L" horiz-adv-x="820" 
d="M804 26q0 -19 -5 -30.5t-22 -25.5q0 26 1.5 32t1.5 16q0 12 -3 26l-10 3q-5 2 -12.5 -8t-14 -23t-11.5 -25t-5 -15q0 -16 12 -27t26 -11q7 0 15 4q11 -13 11 -19q0 -5 -4 -17l-17 14q-9 -5 -17 -9.5t-19 -4.5q-33 0 -33 22q0 7 2 18t5 21.5l5 17.5l2 7q0 20 -6.5 28
t-15.5 10t-18.5 -0.5t-15.5 -3.5q-26 -4 -53 -6t-56 -2q-13 0 -36 0.5t-55 1.5q-32 2 -55.5 2h-38.5q-26 0 -38 -9t-12 -31q0 -11 4 -30.5t6 -23.5q0 -22 -22 -22q-20 0 -20 19q0 9 3 27.5t3 27.5v11q-102 0 -142 37q-19 19 -46 19l-18 -3q0 -16 -6 -28q-14 17 -28 36
t-28 48q0 9 9.5 15.5t21.5 14.5t21.5 19t9.5 28q0 34 3 83t4 114q1 67 1.5 118.5t0.5 89.5q0 1 5.5 14.5t5.5 15.5v0q-4 12 -7 23t-3 25q0 13 3.5 32.5t8.5 38t9.5 33.5t6.5 18q9 19 22 19q59 0 100 -68q42 -68 42 -175q0 -10 0.5 -48t1.5 -106q1 -69 1.5 -98.5t0.5 -19.5
v-66t2 -34q2 -23 16 -29.5t33 -6.5q17 0 27.5 0.5t16.5 1.5q47 2 72 3t29 1q222 0 277 -26q45 -22 45 -104zM307 -128l11 -14l-11 -4v18zM85 -12v-14q-5 0 -10.5 2t-10.5 4v18q8 -1 21 -10z" />
    <glyph glyph-name="M" unicode="M" horiz-adv-x="940" 
d="M914 102q-2 -26 -3 -46t-1 -30q-9 -81 -20 -92q-3 14 -18 29q0 -24 -7 -33.5t-16 -8t-16 11t-7 22.5t1 19.5t-1.5 10.5t-9.5 7.5t-22 11.5q-32 16 -53.5 38.5t-28.5 42.5q-3 16 -6 47q-13 36 -20.5 67.5t-11.5 58.5q-14 94 -18 102q-3 -2 -17.5 -32.5t-31 -68t-30 -70.5
t-15.5 -39q-13 -54 -26 -82l-10 -20l-22 -44q-3 -3 -4.5 -12.5t-4 -19.5t-8.5 -17.5t-18 -7.5q-9 0 -14 4.5t-10.5 11.5t-13 15.5t-21.5 15.5q-19 12 -26 26.5t-11 32.5t-8.5 39t-18.5 45q-25 46 -46 85.5t-39 73.5q-13 19 -27 32l-4 -408q0 -8 -10 -13t-18 -5
q-11 0 -14.5 6t-3.5 18v27q0 24 -10 36.5t-25.5 20.5t-35 16t-37.5 23q-46 37 -46 67v234l59 286q-1 6 -7.5 16.5t-13.5 21.5t-13 21.5t-6 14.5q0 18 17 17.5t32 -0.5q6 0 11.5 6t11.5 12.5t14 12.5t19 6q45 0 59 -58q2 -9 2 -18.5t2.5 -20.5t9 -24t20.5 -29
q13 -16 26 -33.5t27 -35.5q56 -77 90 -135q44 -76 52 -84q5 1 22 32.5t36 71t34.5 75t18.5 44.5t13 30.5t21.5 45t22 44t14.5 29.5q2 8 2 14q0 5 -2 14.5l-4 19t-4 18t-2 12.5q0 16 7 26t23 10q14 0 29.5 -10t26.5 -10q6 0 21 7t29 7q52 0 72.5 -25t20.5 -75q0 -9 -0.5 -16
t-0.5 -12q-1 -6 -1.5 -11.5t-0.5 -10.5v-23q0 -7 -4.5 -6t-10 5.5t-10 10.5t-4.5 9q-1 -2 1 6t2 12q0 6 -3.5 4.5t-7.5 -5.5t-7 -8t-2 -3q-2 -4 -2 -14q4 0 16 -36t26.5 -85.5t27.5 -100t20 -78.5q16 -74 24 -134.5t8 -107.5zM482 -98q0 -6 -3.5 -17.5t-3.5 -16.5
q0 -7 3 -16h-22l-2 7t-5 17t-6.5 20t-6.5 18q0 4 4 7t8 7q12 -4 23 -10t11 -16zM218 -158h-24q-4 0 -7 10t-3 11l6 17h24q4 -5 7 -10.5t3 -9.5z" />
    <glyph glyph-name="N" unicode="N" horiz-adv-x="768" 
d="M60 650l-11 -4l-9 10v28h16l3 -15t1 -19zM719 234l23 -204q2 -19 -3 -37t-12 -33.5t-13 -27t-6 -17.5q3 -7 6 -14.5t5 -16.5q5 -21 9 -60h-26q-9 9 -13.5 20.5t-4.5 20.5q0 5 3 24t3 24q0 38 -41 73q-74 64 -114.5 103.5t-52.5 56.5q-10 15 -23 32.5t-26.5 35t-25.5 32
t-18 22.5q-1 1 -13 18.5t-27 39t-29 40.5t-19 23l-6 -6q6 -22 11 -48.5t8.5 -53.5t5.5 -52t2 -45l-30 -275q-2 -12 6 -22.5t24 -26.5v-8q0 -4 -9 -6t-7 -2q-23 0 -32.5 18t-9.5 42q0 21 1.5 39.5t-2 32.5t-15 22t-37.5 8h-13q1 0 -8 -1.5t-27 -3.5q-10 13 -24.5 29t-28 33
t-23.5 33.5t-10 31.5v62q0 9 -0.5 23.5t-0.5 34.5q0 48 6 120q8 28 12 51.5t4 59.5v89l14 90q2 9 -3 19.5t-12.5 19.5t-17 15t-17.5 6q-9 0 -17 -6q-13 9 -18.5 20.5t-5 21t6 16.5t14.5 7q4 0 14.5 -3t22.5 -7t24 -8.5t20 -6.5q3 3 5.5 9.5t6 13t9 12t14.5 5.5q48 0 78 -64
q6 -14 14.5 -42t42.5 -60q20 -19 33.5 -34.5t25.5 -31t24 -32.5t28 -40q43 -60 67.5 -93t31.5 -41v188q0 16 6 50t16.5 67.5t24 59t28.5 25.5q62 0 104 -250q7 -44 16.5 -93t15.5 -79q4 -26 7 -42.5t3 -24.5t-5 -21zM198 -68v-27h-26v69q20 -14 20 -22q2 -5 3 -10.5t3 -9.5z
M205 -142l-7 -6h-14l4 30q10 -10 10 -11t7 -13z" />
    <glyph glyph-name="O" unicode="O" horiz-adv-x="748" 
d="M722 308q0 -32 -5 -65t-15 -65q-17 -51 -31.5 -88t-23.5 -62q-4 -20 -5 -29t-1 -25v-13q0 -7 10.5 -30t10.5 -49q0 -18 -8.5 -22t-27.5 -4q-25 0 -39 34q-11 22 -2 36t18 35q25 59 25 109v14q0 7 -1 10.5t-1 5.5q-45 -27 -76 -45t-48 -31q-20 -16 -22 -32t-2 -39
q0 -13 -6 -20.5t-16 -11.5q0 82 -92 83q-94 2 -195 64q-28 17 -54.5 46.5t-48.5 69.5q-40 74 -40 151q0 71 44 170q28 65 70.5 116.5t95.5 84.5q34 21 53.5 32t24.5 14q82 44 130 44q8 0 46 -46q14 -17 35.5 -37t45 -43.5t46 -50t37.5 -56.5q22 -43 35.5 -77t20.5 -57
q12 -43 12 -121zM503 -162q0 -3 -3.5 -9.5t-3.5 -9.5h-29q-8 10 -12.5 18.5t-4.5 18.5q0 8 2.5 11t14.5 17h17q19 -42 19 -46zM528 324q0 62 -8 115.5t-22 102.5q-17 58 -35.5 93t-41.5 47q-96 -63 -147 -198q-38 -102 -38 -185q0 -72 18 -109q32 -64 127 -64q82 0 119 79
q14 28 21 57.5t7 61.5z" />
    <glyph glyph-name="P" unicode="P" horiz-adv-x="688" 
d="M660 570q0 -83 -67 -150q-23 -22 -56 -43.5t-76 -42.5q-23 -11 -46 -22.5t-47 -21.5q-11 -11 -22.5 -37.5t-11.5 -46.5q0 -13 6 -25v-31l-24 -4q-8 24 -8 42q0 16 1 21.5t3 24.5q0 19 -8 28.5t-28 17.5l-32 -370h-8q-24 0 -24 26l0.5 6t1 14l1 16t0.5 12v18q0 5 -1.5 8.5
t-2.5 5.5l-11 6q-9 -8 -10.5 -10.5t-9.5 -12.5q-6 6 -17 18.5t-25.5 28t-31.5 32t-34 30.5q-33 50 -33 138q0 32 4.5 71t12.5 87q5 30 8.5 53t7.5 45.5t8 46.5t9 56q-6 7 -6 11l-25 4q-4 -9 -7.5 -17.5t-3.5 -20.5q0 -17 1 -22q1 -7 1 -11.5t1 -8.5q0 -23 -5.5 -21.5
t-11.5 17.5t-11.5 41t-5.5 49q0 29 23.5 47.5t60.5 40.5q10 7 15 21.5t10.5 29.5t13.5 26.5t26 11.5t28.5 -3t17 -8t12 -11t13.5 -13q41 15 80 27.5t70 12.5q77 0 161 -54q113 -71 113 -184zM180 -41q0 -4 -3.5 -11.5t-5.5 -9.5h-17q-4 18 -1 25t9 8t12 -3t6 -9zM484 656
q0 43 -7 50q-13 11 -69 11q-26 0 -52 -2.5t-48 -10t-36.5 -20t-16.5 -32.5l17 -226q88 23 152 100q60 72 60 130z" />
    <glyph glyph-name="Q" unicode="Q" horiz-adv-x="788" 
d="M774 -45q0 -22 -7.5 -48.5t-7.5 -58.5q0 -7 -10 -11.5t-18 -4.5q-23 0 -23 20q0 4 2 13t4.5 19t4.5 19t2 13q0 10 -5 18h-41q0 -7 -2.5 -22.5t-2.5 -25.5v-28q2 -10 3 -21t2 -23l-15 -4q-10 -2 -23 8t-13 17q0 3 10 17t10 19q0 16 -13.5 37t-33.5 42.5t-43 41t-41 32.5
q-12 -4 -23 -23.5t-20 -34.5t-14.5 -15.5t-5.5 33.5q0 11 -22 22t-50.5 20t-56.5 16.5t-41 11.5q-77 27 -130 69q-66 53 -99 139q-12 33 -17.5 64.5t-5.5 61.5q0 46 20 92q14 32 37 66t57 80q16 22 43 48t67 55q101 73 174 73q20 -14 36 -25t28 -18q37 -25 56 -39t24 -18
q18 -10 32.5 -22t27.5 -26q36 -38 53.5 -78.5t38.5 -87.5q24 -56 24 -138q0 -45 -7.5 -83.5t-23.5 -64.5q-15 -23 -32.5 -45.5t-35.5 -46.5q2 0 17.5 -12.5t33.5 -28t33 -30.5t15 -19q28 -19 28 -65zM494 -134q0 -20 -25 -20q-7 0 -16 9.5t-5 28.5l6 29h13q18 -12 25 -27
q2 -10 2 -20zM532 466q0 81 -42 162q-35 63 -58 78q-101 -65 -154 -174q-42 -87 -42 -160q0 -21 5 -48.5t14 -53.5t22 -49t29 -35q13 -4 21.5 -7t18.5 -13h22q-20 28 -37 55t-30 53q-12 25 -1.5 32.5t41.5 7.5q11 0 31.5 -5t41.5 -12.5t38.5 -16t23.5 -16.5q27 28 39.5 83
t16.5 119z" />
    <glyph glyph-name="R" unicode="R" horiz-adv-x="794" 
d="M774 49v-105l-13 -2q-4 0 -9 9t-10 21t-8.5 22t-5.5 12q-22 -4 -28 -26.5t-6 -41.5v-10q0 -6 1 -8.5t1 -1.5v-24q-3 3 -7.5 21t-9.5 39.5t-9 39.5t-6 20q-5 0 -20 5.5t-32 13.5l-34 16t-26 13q-18 10 -47 33t-61 50t-64.5 55.5t-57.5 50.5h-12q0 -18 2 -50t4 -68.5l4 -73
t2 -62.5q-2 -10 -2 -17t-2 -12q-3 -25 -20 -64q-14 8 -20 13.5t-6 16.5q0 8 4 19t4 19q0 16 -14 23.5t-36 10.5q-20 3 -35 10t-28.5 17t-26.5 22.5t-30 25.5q-2 -2 -4 -2t-4 -0.5t-4 -4.5t-4 -14q-12 4 -20 7t-8 18q0 26 0.5 78.5t1.5 131.5q1 40 1.5 73t0.5 60
q-5 14 -18 25.5t-13 17.5q33 17 46 64.5t13 96.5q0 7 -4 11h-17q-4 -15 -6.5 -25t-4.5 -16q-2 -16 -3 -29t-1 -24l-22 -4q-4 7 -8 12t-4 9q0 101 22 127q21 13 38.5 23.5t31.5 19.5q19 13 25 28.5t24 15.5q-4 0 6 -1t33 -4q5 -1 20 -1h8q-3 0 22 4.5t56 9.5t56 9.5t23 4.5
q121 0 227 -72q90 -60 90 -154q0 -75 -31 -120q-27 -38 -86 -66q-19 -9 -51.5 -22t-78.5 -30q3 -4 36 -27.5t74 -52t78 -54.5t47 -36q76 -69 76 -119zM790 -134v-18q-4 -2 -7.5 -3t-6.5 -1q-13 0 -24.5 21t-11.5 35q0 10 3.5 17.5t4.5 12.5q20 -14 24.5 -34t17.5 -30z
M294 -169h-16l-15 13q5 5 6 9t1 16h19l1 -6.5t2 -13.5t1.5 -12.5zM94 -16q0 -6 -8 -17t-8 -19q0 -2 5 -22q-6 -3 -13 -3q-12 0 -16.5 10.5t-4.5 23.5q0 1 2.5 9t6 18.5t6 21.5t2.5 18q28 -12 28 -40zM526 635q0 32 -33 40t-79 8q-19 0 -43 -2t-45 -8t-35.5 -16t-14.5 -26
q0 -11 3 -34.5t7.5 -48t9.5 -44.5t8 -25q32 12 63.5 22.5t62.5 24.5q48 21 72 50.5t24 58.5z" />
    <glyph glyph-name="S" unicode="S" horiz-adv-x="788" 
d="M761 234q0 -28 -11.5 -60.5t-22.5 -55.5q-15 -45 -41 -68q-2 -1 -12.5 -5.5t-22 -11t-20.5 -14.5t-9 -17q3 -18 4.5 -31t3.5 -21q3 -26 3 -46q0 -35 -40 -35q-19 0 -21.5 11t2.5 26t12 31.5t7 27.5q-15 7 -20 19t-5 28q-10 4 -13 4q-17 0 -27.5 -14.5t-17.5 -34
t-10.5 -39t-5.5 -28.5q-22 13 -22 38q0 19 3.5 43t2.5 22h-30.5t-25.5 -1t-25.5 -1h-30.5q-121 0 -194 51q-73 52 -108 52q0 9 -6 20.5t-14 23.5t-14 23t-6 19q0 15 15.5 34.5t32.5 19.5q34 0 124 -50q10 -7 32 -19.5t54 -32.5q10 4 18.5 7t13.5 5q38 16 67 33t49 35
q9 6 16.5 14t16.5 21t21 32t32 47v24q-8 2 -16 6q-29 -10 -49 -17t-31 -12q-82 -33 -88 -47q-2 -2 -2 -24q0 -26 1 -32q1 -14 6 -36q-3 0 -7 -3t-8 -3q-38 0 -38 36q0 1 5.5 12t11.5 24t11.5 23.5t5.5 11.5q0 8 -62 29q-74 24 -102 66q-8 9 -19 27.5t-21 38t-17.5 36.5
t-7.5 24q2 8 6 20t11 28q13 28 29.5 52t35.5 44q35 35 151 86q88 38 148 38q66 0 154 -58q73 -46 103 -118q1 -2 8.5 -13t16.5 -24.5t9 -14.5q-23 -16 -38 -36t-15 -36q0 -2 5 -9t11 -15.5t11 -17t5 -14.5q0 -1 -6.5 -14.5l-6.5 -13.5h-27q-10 31 -10 48q0 8 3 25.5t3 26.5
q0 19 -13 28t-38 17q-27 8 -46.5 22t-36.5 32t-33 39.5t-35 45.5q-18 -6 -45.5 -33t-55.5 -60.5t-52 -67t-34 -53.5v-28q21 4 40.5 8.5t38.5 8.5q60 12 84 12q19 0 45 -5.5t57 -17.5q77 -30 126 -77q63 -61 63 -141zM498 -152q0 -12 -20 -20q-12 8 -15.5 18t-0.5 17.5
t10.5 11t17.5 -1.5q8 -5 8 -25z" />
    <glyph glyph-name="T" unicode="T" horiz-adv-x="840" 
d="M734 584l6 -26h-24l6 26h12zM820 682q0 -6 -5.5 -33.5t-13 -59t-14.5 -58.5t-11 -31q-9 4 -20.5 9t-11.5 19q0 2 6.5 16t14.5 30.5t14.5 31t6.5 16.5q0 12 -19 30q-17 -11 -17 -20v-10q0 -7 -4 -16h-16v20q0 27 -10.5 33.5t-57.5 6.5h-174v-96l36 -256v-86
q0 -8 -1.5 -18.5t-1.5 -23.5v-18t1 -12q2 -12 -0.5 -26.5t-6 -26t-6.5 -18.5t-2 -5q-6 -15 -16.5 -32.5l-21 -35t-18 -32.5t-7.5 -25q0 -4 4 -19.5t4 -35.5q0 -24 -2 -34q-6 -18 -27 -18q-13 0 -18 16t-5 26q0 14 6.5 26t14.5 21.5t14.5 17t6.5 11.5q0 13 -12 27.5t-26 21.5
t-26 4t-12 -24q0 -3 2 -11l2 -8q0 -8 -12 -17q-6 15 -17.5 40t-24 52.5t-23.5 53t-17 39.5q-8 17 -10.5 45.5t-2.5 63.5l44 428q-94 0 -165 17q-85 21 -116 67v12q22 5 48.5 9.5t57.5 7.5q28 3 55.5 3.5t54.5 0.5q59 0 158 3q28 1 53 1h45q82 0 141 -4t89 -12
q92 -24 92 -104zM366 -79v-35l-16 -2q0 9 -3 24t-3 24q15 -5 22 -11zM366 -200v-16h-22q-10 14 -10 18q0 3 2.5 8.5t3.5 7.5q17 -6 26 -18z" />
    <glyph glyph-name="U" unicode="U" horiz-adv-x="682" 
d="M654 -10l-32 10q-3 -16 -6 -56q-2 -15 -3 -37.5t-1 -52.5q-6 9 -11.5 29t-12 42.5t-13.5 42.5t-16 29q-5 5 -22.5 12t-32.5 11q-11 8 -24 20t-19 12q-7 0 -23 -4.5t-33 -12t-30 -17t-13 -18.5l38 -114q-16 -2 -23.5 1.5t-12 10t-9 14.5t-14.5 16v-53q19 -8 21 -18t-6 -24
h-24q0 19 -1 38.5t-3 39.5q-2 24 -5 41t-9.5 30t-18.5 22.5t-33 19.5q-110 52 -131 70q-66 61 -89 134q-6 49 -10 79.5t-8 68.5q1 9 3.5 21.5t4.5 25.5t4.5 25t3.5 19q2 11 4.5 31.5t4.5 44t3.5 45.5t1.5 36v40q0 8 -0.5 14t-1.5 13q0 9 4 27.5t11 36.5t17.5 31.5t23.5 13.5
q76 0 111 -100q23 -66 23 -158v-170q0 -66 30 -140q39 -90 96 -90q34 0 54 12t20 40q0 14 -3.5 24t-5.5 22q0 33 0.5 73.5t1.5 86.5q2 102 4.5 166t2.5 90q0 18 3.5 42.5t10.5 46.5t18.5 37.5t28.5 15.5q60 0 98 -86q37 -84 37 -253v-82q0 -13 -0.5 -33t-0.5 -45
q0 -38 1.5 -69.5t2.5 -56.5q1 -31 5 -63.5t8 -64.5q4 -17 5 -24.5t-5 -30.5zM668 -44q0 -4 -2.5 -9t-5.5 -9h-18v38l12 6q6 -8 10 -13.5t4 -12.5z" />
    <glyph glyph-name="V" unicode="V" horiz-adv-x="808" 
d="M762 393q0 -27 -28 -43h-15q-13 26 -13 34q6 12 14.5 28t9.5 17h16q6 -9 9 -13t4.5 -6.5t2 -5.5t0.5 -11zM788 643l-36 -185h-33q1 4 2 14.5t2 21.5t1.5 18.5t0.5 5.5q0 24 -6 38l-201 -454q10 -16 16 -27t10 -19q11 -25 11 -32q0 2 -4 -17.5t-8.5 -42.5t-8.5 -42.5
t-4 -17.5l-12 -2q-5 0 -8.5 13t-10.5 28t-21.5 28t-41.5 13q-9 0 -13.5 -9.5t-9 -20.5t-10 -20.5t-17.5 -9.5q-24 0 -24 31v17q0 26 -15.5 50.5t-34.5 37.5q-5 5 -21.5 31t-35 57t-34 57.5t-17.5 32.5q-14 34 -22.5 59.5l-13.5 40.5q-10 20 -24.5 56t-29.5 77t-29 82t-23 71
q-34 105 -34 139q0 17 12.5 28t31.5 11q28 0 80 -46q75 -66 134 -182l46.5 -93t46.5 -91q9 -18 15 -30.5t14 -28.5q9 11 65 111q28 50 44 79.5t19 38.5q5 10 12 25t17 35q14 28 26.5 50t22.5 38q37 60 71 60q33 0 71 -41q32 -32 32 -84zM528 -146v-14t-2 -11
q-11 -18 -18 -19t-11.5 5t-6.5 14t-2 9q0 10 6 23t10 21h15q11 -14 10 -17t-1 -11zM414 -142q-6 -6 -6 -10h-21q-2 8 -3.5 11t3.5 13h17q2 0 6 -6t4 -8z" />
    <glyph glyph-name="W" unicode="W" horiz-adv-x="1106" 
d="M1075 728v-18q0 -89 -48 -254q-16 -56 -41.5 -130.5t-53.5 -152.5q-62 -171 -62 -172q-2 -5 -2 -10v-9q0 -19 10 -33q9 -13 -0.5 -23t-9.5 -24q0 -6 6 -27q3 -13 4.5 -25t-12.5 -12q-11 0 -22.5 8.5t-11.5 20.5q0 5 12.5 16t12.5 21q0 20 -21 29t-60 19q0 -9 -1 -26.5
t-3 -36t-4.5 -34.5t-5.5 -21h-16q-9 8 -12.5 33t-7 58t-10 69.5t-22.5 67.5q-5 11 -14.5 32.5t-21 46.5t-23.5 49t-23 40q-56 125 -70 144q-13 -10 -28 -39t-27.5 -62.5t-20.5 -65.5t-8 -49q0 -7 6.5 -19t14.5 -26t14.5 -27.5t6.5 -23.5q0 -14 -1 -26t-3 -22
q-4 -19 -6.5 -31t-7.5 -39v-4v-7.5t2 -10.5q6 -16 8 -27t2.5 -20.5t0 -19.5t-0.5 -24l-12 -2q-7 -2 -21 5t-28 17.5t-26 21.5t-15 17v42h26l22 -25q11 17 14.5 39t3.5 44q0 3 -4 7q-7 7 -11.5 1.5t-7.5 -15.5t-4.5 -21t-1.5 -14h-17q-8 23 -21 41.5t-33 28.5
q-32 17 -54.5 27.5t-33.5 16.5q-2 2 -2 25q-3 19 -7 33t-11 29.5t-17 37t-24 55.5q-12 30 -21 53.5t-14 41.5q-3 9 -13.5 35.5t-24 60.5t-29 71t-28 67.5t-20 48.5t-6.5 15q-35 89 -35 107q0 10 15 18t25 8q64 0 108 -75q14 -26 26 -48.5t23 -38.5q29 -46 55 -93t37 -90
l13 -7q7 9 15.5 25.5t18.5 42.5q13 32 27.5 63t30.5 59q9 15 53 121q20 50 61 50q19 0 44 -26t48.5 -61t41.5 -70.5t24 -55.5q3 -8 12 -29.5t20.5 -48t23.5 -55t21.5 -51t14 -35.5t0.5 -9q5 8 15 31.5t26 63.5q2 7 12.5 34l24.5 63t29 75t27 69q21 55 27 76q0 26 10 42.5
t38 16.5q49 0 69.5 -17.5t20.5 -61.5z" />
    <glyph glyph-name="X" unicode="X" horiz-adv-x="708" 
d="M685 28q0 -3 -2 -17.5t-5 -31.5t-6 -31.5t-6 -17.5h-25q11 11 11 23q0 1 -1.5 8.5t-4 17.5t-4 19.5t-1.5 13.5q2 0 -5 -1t-16.5 -3t-18.5 -3t-12 -1q-75 0 -128 52q-19 19 -37.5 40t-36.5 41q-8 -4 -29 -25.5t-43.5 -47.5t-40 -50t-17.5 -32q0 -6 10.5 -30t18.5 -41v-21
l-16 -2q-30 -4 -38 16.5t-8 54.5v15q0 39 -11 50q-10 13 -35 13q-22 0 -22 -29q0 -21 5.5 -38.5t15.5 -45.5h-25q-10 11 -15.5 23.5t-5.5 28.5q0 1 1.5 18.5t1.5 25.5q0 15 -10 33.5t-10 34.5q0 28 68 129q69 102 69 116q0 6 -21 43.5t-49 85.5t-56 94t-42 68q-31 49 -45 81
t-14 39q0 48 53 48q25 0 50 -14t51 -38t53 -55.5t55 -66.5q61 -74 82 -90q2 3 18.5 30t37.5 61.5t41 66.5t29 45q14 20 23 33.5t17.5 22t18.5 12.5t25 4q14 0 29.5 -5.5t29 -14.5t23.5 -20.5t13 -24.5q3 -50 4.5 -80.5t3.5 -67.5q1 -10 2 -27t2 -31v-12q0 -22 -9 -25.5
t-19.5 3.5t-19.5 20t-9 24q0 4 3 16.5t6.5 27t6.5 27.5t3 19q0 19 -11 36q-10 -9 -24 -33t-30 -58t-33.5 -73.5t-35.5 -79.5q-11 -23 -17 -37.5t-18 -40.5q0 -3 20.5 -31.5t46.5 -63.5t51.5 -69t34.5 -48q54 -82 54 -106zM676 -156l-3 -11h-15q-10 10 -12 13q-5 8 -5 22
q0 2 2 9.5t2 8.5q31 -13 31 -42zM184 -144q-8 -8 -15 -7.5t-12.5 4.5t-9 9.5t-3.5 9.5q7 12 14 13.5t13 -2.5t9.5 -12t3.5 -15z" />
    <glyph glyph-name="Y" unicode="Y" horiz-adv-x="807" 
d="M808 440q0 -6 -16 -19q-26 7 -31 30t9 43h14q13 -13 18.5 -28t5.5 -26zM808 634v-87q-10 -7 -10.5 -11t-13.5 -4q-18 0 -21 18t-3 43v27v18t1 14l-11 6q-6 -3 -25.5 -35.5t-41 -72t-38.5 -73.5t-17 -39q0 -4 4.5 -15.5t10.5 -24t12 -24.5l9 -18v-80l-23 -2
q-12 -1 -19 10.5t-11.5 26.5t-7 29.5t-5.5 19.5q-23 -22 -47.5 -58.5t-45.5 -87.5q-16 -38 -27.5 -67.5t-22.5 -56.5t-22 -55.5t-25 -64.5h-15q-12 15 -17 27q-11 18 -18.5 14.5t-12 -16.5t-6 -30t-1.5 -27h-16q-6 18 -9.5 41.5t-3.5 32.5q0 12 3 25q1 9 -11.5 22t-28.5 28
t-29 31.5t-13 31.5q0 -3 8 16.5t20 51.5t25.5 69.5t25.5 69t20 51.5t8 17q0 7 -28 35t-64.5 62.5t-72 67t-49.5 48.5q-12 14 -29 30.5t-32.5 33.5t-26.5 32.5t-11 25.5q0 6 9 11.5t22 10t27 7.5t24 3q32 0 126 -59q92 -55 198 -142q47 56 73.5 86.5t32.5 36.5q88 86 155 86
q47 0 78 -13t31 -51q0 -6 -1 -12t-3 -12q-6 -22 3 -43t9 -35zM420 -98v-18h-14h-10h-19v50l10 8h17q2 -6 4 -17q2 -4 4.5 -9.5t7.5 -13.5z" />
    <glyph glyph-name="Z" unicode="Z" horiz-adv-x="946" 
d="M924 82q0 -15 -7.5 -31.5t-16.5 -33t-16.5 -31.5t-7.5 -27q6 -17 11.5 -31.5t5.5 -23.5q0 -22 -7 -35t-30 -13q-20 0 -27 16t-7 35q0 7 2 19t4.5 25t5 25.5t4.5 19.5l-10 7q-18 -18 -22 -36t-4 -37q0 -7 -4 -15h-18q-2 10 -2 9q0 2 1.5 8t3 12.5t3 11t0.5 3.5
q0 25 -20.5 40t-46.5 15q-19 0 -40 -5.5t-32 -5.5h-287q-2 0 -9.5 -8.5t-15.5 -18.5q-14 -6 -14.5 -20.5t4 -31.5t10.5 -34.5t6 -29.5q0 -25 -27 -25q-32 0 -32 33q0 6 2.5 18t6 24.5t6 24.5t2.5 19q0 6 -11 9t-25.5 5.5t-28 3.5t-19.5 2q-36 9 -46 27q-10 15 -21 23
t-22 11.5t-21 5t-16 3.5q-61 24 -61 62q0 12 36 21q96 24 132 84q3 3 21 27.5t38.5 53t38 51.5t18.5 25q18 22 32 39.5t24 29.5q15 19 24.5 30t17 19t14 16.5t16.5 21.5q23 31 41.5 55t35.5 39q32 29 72 50v16h-248q-11 0 -36 3.5t-52 9t-50.5 10.5t-30.5 8q-1 -3 -7 -7
q-5 -4 -2 -15.5t8.5 -23.5t10.5 -20t4 -5q28 -56 28 -66q0 -6 -10 -13t-18 -7q-11 0 -24.5 24t-25.5 53t-20 55t-8 31q0 21 50 36t121.5 24.5t150 14t134.5 4.5q53 0 109.5 -7t112.5 -21q113 -29 113 -60q0 -19 -23 -23.5t-48 -4.5h-24q-8 0 -16 -9.5t-15 -21.5t-12 -23.5
t-7 -15.5q-33 -56 -42 -70q-24 -45 -39 -69q-29 -47 -57 -91.5t-60 -93.5q-24 -38 -40 -64t-24 -40h132q50 -2 70 -2t12 0q87 0 147 -23q71 -27 71 -79zM238 478q0 -6 -2.5 -10t-5.5 -9h-21q-5 6 -12 12.5t-7 10.5l19 22q9 -5 14 -8t9 -6q6 -4 6 -12z" />
    <glyph glyph-name="bracketleft" unicode="[" 
d="M521 612q0 -15 -18 -15q-19 0 -19 23q0 15 6 18t12.5 -1t12.5 -11.5t6 -13.5zM601 -186l1 30q0 18 -2 28q-6 15 -12.5 11.5t-8.5 -15.5t2.5 -28t19.5 -26zM252 280v-178h230q39 0 100 -23q84 -31 84 -81q0 -12 -3 -26.5t-11 -29.5q-16 -34 -25 -50t-9 -18q0 -6 3 -20
t7.5 -30t10 -31.5t11.5 -24.5v-30l-15 -3q-9 -2 -13.5 3.5t-7.5 14t-5.5 16t-6.5 10.5q-8 4 -24 8t-22 18t-7 30.5t0.5 31t1.5 19.5q0 24 -16.5 30.5t-50.5 6.5q4 0 -20.5 -3.5t-56.5 -8t-60.5 -8.5t-32.5 -5q-6 -1 -10.5 -1.5t-7.5 -0.5h-16q-8 0 -12.5 0.5t-8.5 1.5h-19
q-27 0 -43.5 -6.5t-16.5 -31.5q0 -1 4.5 -10.5t10 -22.5t10 -26.5t4.5 -22.5q0 -15 -4.5 -26t-8.5 -20h-18q-13 17 -13 42q0 16 5.5 36t9.5 34q0 10 -25.5 30.5t-55.5 44t-55.5 46t-25.5 36.5q0 2 6 10.5t13 16.5t11.5 14t2.5 4v5l-0.5 12t-1.5 35q-1 20 -3.5 45t-2.5 55
v196l40 323q-5 15 -18.5 29t-13.5 36q0 21 24 34.5t60 21t78 10t78 2.5q19 0 55.5 -2t77 -5t78 -7t57.5 -8q3 0 17 -1.5t30 -5.5t28.5 -11t12.5 -18q0 -43 -27 -74q-27 -32 -27 -96l-15 -2q-15 -2 -15 12q0 -3 0.5 3t1.5 21q2 16 3.5 31t-15.5 15q-5 0 -12 -6.5t-15 -14.5
t-15.5 -14.5t-12.5 -6.5q-6 0 -20 12.5t-24 12.5q-29 -11 -76 -12t-106 -1q-5 0 -11 0.5t-11 0.5q-14 0 -15.5 -36t2.5 -92.5t9.5 -126.5t5.5 -138z" />
    <glyph glyph-name="backslash" unicode="\" horiz-adv-x="916" 
d="M830 -74q-34 -16 -61 -30.5t-27 -43.5q0 -9 1 -16.5t1 -15.5q0 -25 -17.5 -31t-41.5 -6q-9 0 -30 2.5t-43 9.5t-39 18.5t-17 28.5q0 8 23 16t50.5 17t51 18t25.5 18q2 14 4 20.5t2 17.5q0 12 -10 18.5t-25 6.5q-7 0 -20.5 -2t-24.5 -7l-544 869h204l544 -869q2 -3 2 -10
t-2.5 -13.5t-5.5 -15.5z" />
    <glyph glyph-name="bracketright" unicode="]" 
d="M200 620q0 -23 -16 -23q-21 0 -21 15q0 12 6 18t21 13q0 -1 5 -10.5t5 -12.5zM666 1q0 -34 -82 -86q-80 -51 -80 -71q1 -2 3.5 -11t5 -20.5t4.5 -22.5t2 -16q0 -25 -13 -42h-18q-7 16 -10 23t-3 23q0 7 4.5 18t10 22.5t10 22.5t4.5 19q0 25 -17.5 31.5t-44.5 6.5h-23
q-13 0 -23 -2q-21 0 -43.5 5t-66.5 11q-38 6 -60 8.5t-26 2.5q-40 0 -52 -9q-15 -9 -15 -28q0 -10 1 -19t1 -23q0 -16 -1 -22t-5 -18q-5 -10 -21 -15q-13 -3 -19.5 -12t-11.5 -18t-10.5 -16.5t-17.5 -7.5l-15 3v30q2 4 7.5 19t11 33t9.5 33.5t4 20.5l-7.5 15t-16.5 35.5
t-16.5 41t-7.5 32.5q0 23 22 42t52 33t61.5 21.5t51.5 7.5h227v178q0 39 3 91.5t7 118.5q2 15 7 49.5t5 84.5q0 30 -4 40q-7 10 -17 9t-21 -1q-46 0 -79 1t-53 3q-12 2 -26.5 5t-23.5 4q-10 0 -24 -12.5t-20 -12.5q-5 0 -12.5 6.5t-15.5 14.5t-15 14.5t-12 6.5
q-9 -4 -11.5 -17.5t-2 -27t2.5 -22t2 -2.5q0 -13 -16 -13l-15 2q0 63 -27 96q-27 30 -27 74q0 11 13 18t29.5 11t30.5 5.5t15 1.5q22 4 56.5 8t82.5 8q46 4 78 5t51 1q49 0 87.5 -3.5t69.5 -10.5q83 -18 83 -54q0 -23 -13.5 -36.5t-18.5 -28.5l40 -323v-196q0 -3 -0.5 -19
t-1.5 -44q-1 -22 -3 -44t-3 -45q1 -2 6 -8.5t11 -14t11 -14t5 -8.5zM119 -130q-12 8 -19 20q-14 -13 -16 -19t-2 -27l1 -30q1 2 7.5 11t13 19.5t11.5 18.5t4 7z" />
    <glyph glyph-name="asciicircum" unicode="^" horiz-adv-x="721" 
d="M710 278q-18 -3 -39.5 -5t-41 -7.5t-32.5 -16.5t-13 -32q0 -4 2.5 -22.5t2.5 -21.5q0 -13 -7 -25t-18 -21.5t-24 -15t-25 -5.5h-6q-19 0 -26 15.5t-7 36.5q0 22 5 39t11.5 33t13.5 33t11 40q4 14 5.5 21t3.5 17l-166 267l-164 -271q-4 -5 -15 -11.5t-15 -11.5l-12 -86v-5
q0 -5 1.5 -16.5t4 -24t4 -24.5t1.5 -16q0 -36 -40 -36q-38 0 -59 30q-10 14 -20 29t-20 29q-17 20 -33.5 33t-16.5 35q0 14 14 28t24 30q1 3 3.5 13.5t4.5 15.5l272 409h133l271 -411q0 -10 3 -29t9 -40z" />
    <glyph glyph-name="underscore" unicode="_" horiz-adv-x="1536" 
d="M375 -33q-2 -7 -1 -20.5t1 -24.5q0 -2 1 -9t1.5 -15t1.5 -14l1 -6v-10q0 -16 -19.5 -23.5t-42.5 -15t-42.5 -20t-19.5 -37.5q0 -12 18.5 -17t35.5 -5q18 0 51 4.5t65.5 14t56 24.5t23.5 36q0 11 -5.5 27t-12.5 31t-12.5 26.5t-5.5 14.5q0 18 15 31t33 31q20 15 41 15
q2 0 8 -0.5t15 -1.5q9 -2 17 -12.5t14 -23.5t9.5 -25t3.5 -18q0 -4 -1.5 -12.5t-3.5 -17.5t-3.5 -16.5t-1.5 -9.5q0 -17 13.5 -29.5t32.5 -20.5t40.5 -12t37.5 -4q30 0 59 14t29 40q0 11 -9 32t-13 34q-3 8 -10 22t-10.5 27.5t1.5 23.5t27 10q2 0 11.5 -1t21.5 -2.5t13 -1.5
h690v110h-1570v-110h401v-2q0 -3 -2 -12t-4 -19z" />
    <glyph glyph-name="grave" unicode="`" horiz-adv-x="512" 
d="M248 738l101 -141h-109l-174 141h182z" />
    <glyph glyph-name="a" unicode="a" horiz-adv-x="740" 
d="M712 146h-16v27q13 -11 14.5 -13.5t1.5 -13.5zM721 222q0 -8 -4.5 -18t-4.5 -18h-16q-5 16 -11.5 22.5t-22.5 6.5q-19 0 -27.5 -5t-8.5 -22q0 1 6.5 -22.5t14.5 -52.5t14.5 -53.5l6.5 -24.5q0 -26 -24 -49q-8 -8 -9 -15t0.5 -13.5t4 -11.5t3.5 -8q7 -16 10 -24l3 -8v-22
l-9 -3q-18 16 -26.5 48.5t-15.5 60.5q-15 8 -27 19t-20 26q-16 26 -28 51.5t-19 48.5q-13 45 -29 45q-2 0 -39.5 -4t-82 -8t-80.5 -8l-36 -4q-7 -15 -14.5 -29t-15.5 -29q-10 -18 -25 -42t-37 -55q-22 8 -36 8q-16 0 -25.5 -10t-14.5 -24.5t-7.5 -30t-4.5 -26.5
q-4 -4 -10 -6l-12 -4t-12 -6t-12 -14h-10v73q18 57 60 174q19 54 39 103t41 93l33 66t19 37q15 26 25.5 46.5t18.5 34.5q11 18 25.5 48.5t29.5 60t30 51t27 21.5q14 0 22 -8t22 -8h17q17 0 37 -26.5t39 -63.5t33 -76t18 -64q4 -29 19.5 -68t23.5 -73q10 -42 71 -46
q63 -6 63 -41zM595 -42q0 -6 -7 -20q-12 -12 -16 -5.5t-4 22.5v12q0 10 19 17q3 -8 4.5 -14t3.5 -12zM595 -146l-8 -15h-11q-18 15 -18 31q0 14 6 17t12.5 -0.5t12.5 -13t6 -19.5zM89 -134l-23 -2v1q0 3 6 9q9 14 12.5 5t4.5 -13zM291 248l170 18q0 13 -31 155
q-15 73 -20 75q-9 4 -18.5 -9t-19 -34t-18.5 -45l-15 -40q-47 -117 -48 -120z" />
    <glyph glyph-name="b" unicode="b" horiz-adv-x="599" 
d="M576 211q0 -75 -96 -136q-47 -30 -71 -46t-25 -17q-7 4 -16 8.5t-8 3.5q-10 0 -15 -2q-19 -9 -43 -12.5t-46 -9.5t-37 -19t-15 -41q0 -10 6.5 -21t6.5 -21l-2 -8t-3 -9h-24v11v18v24v10q0 8 -14 20t-22 12q-17 0 -24.5 -9.5t-7.5 -34.5v-14t1 -11q1 -6 1 -13.5v-15.5
q0 -26 -5.5 -34.5t-12 -6t-12 13.5t-5.5 26q0 14 3.5 25.5t11.5 27.5q0 10 -9.5 27t-9.5 34q0 3 7 10l16 16t16 18.5t7 16.5q0 9 -6.5 20.5t-13.5 25.5t-13.5 29.5t-6.5 33.5q-18 0 -25.5 -6t-18.5 -26h-23q0 5 -2 15.5t-2 18.5q0 50 20 67q19 18 28 24t12.5 8t3 5.5
t-0.5 16.5v28q0 4 -0.5 10.5t-0.5 15.5v64q0 12 3 31.5t6.5 40t7 39t5.5 27.5q4 26 8.5 45t9.5 35q18 48 49 48q13 0 25 -4t27 -14q16 8 37 15.5t46 13.5q23 6 41 8.5t29 2.5q52 0 99 -32q48 -32 48 -70q0 -22 -10 -47t-26.5 -52t-36.5 -54.5t-40 -54.5q97 -47 126 -76
q42 -39 42 -93zM402 -35q0 -15 -18 -25q-8 8 -12 9.5t-4 11.5t7 21h15q12 -9 12 -17zM54 80q-3 -10 -3 -12h-21l-8 9v35h20q12 -15 12 -32zM234 427l101 161v9h-19q-56 -30 -69 -47q-7 -8 -7 -30q0 -12 -6 -26v-67zM384 268q0 17 -8.5 30t-21.5 24h-11q-1 0 -17.5 -12
t-69.5 -50q-33 -23 -35 -32q-3 -17 -4.5 -31.5t-2.5 -26.5q-1 -20 -1.5 -35.5t-0.5 -24.5v-19q80 32 127 83q45 50 45 94z" />
    <glyph glyph-name="c" unicode="c" horiz-adv-x="626" 
d="M544 343q0 -17 -22 -17q-32 0 -32 32q2 4 5 11.5t3 17.5l17 2q5 1 10 -5t9.5 -14t7 -16t2.5 -11zM608 135q0 -3 -7 -15t-16 -27t-16 -29t-7 -20q0 1 3.5 -7t7.5 -19.5t7.5 -23t3.5 -16.5q0 -6 -6 -10t-14 -4q-16 0 -21 14t-5 28q0 2 1 11t2 19.5t2 18.5t1 7
q-25 -15 -30 -35.5t-5 -46.5q0 -23 9.5 -42.5t9.5 -30.5q0 -15 -18 -15q-11 0 -24.5 14.5t-13.5 25.5q0 5 4 13.5t9 16.5t9 14.5t4 7.5q-10 14 -10 26t-10 12q2 -3 -10.5 -7t-29 -7t-33.5 -5.5t-25 -2.5q-7 0 -22.5 2t-32 4t-30 4t-15.5 2l-12 -13q-23 8 -30 21
q-20 23 -53 38t-59 34q-50 36 -75 83.5t-25 96.5q0 58 30 112q15 28 42 64.5t65 81.5q52 62 123 105q85 50 172 50q21 0 43.5 -12t41 -31t30 -42.5t11.5 -46.5q0 -25 -13.5 -70t-21.5 -89h-23q-17 14 -17 32q0 9 5.5 22.5t11.5 26.5q0 5 -12.5 10.5t-27.5 15.5t-27.5 27
t-12.5 44l-8 2q-14 4 -37.5 -12t-49 -40.5t-48 -51.5t-33.5 -45q-21 -37 -34 -78q-15 -48 -15 -89q0 -50 24.5 -88.5t80.5 -38.5q9 0 38 8.5t62 19t62 19t38 8.5q11 0 25 -3t27 -9t21.5 -16t8.5 -23zM257 -7l11 -21q0 -10 -5 -15q-5 -9 -19 -11.5t-14 18.5q0 4 2.5 13
t7.5 16h17z" />
    <glyph glyph-name="d" unicode="d" horiz-adv-x="604" 
d="M589 390q0 -51 -10.5 -105.5t-29.5 -88.5q-15 -26 -21 -50t-6 -46q0 -4 1.5 -15.5t3.5 -24t3.5 -22.5t1.5 -12q0 -14 -20 -14t-20 18q0 1 2 20t2 26q0 9 -2.5 22.5t-7.5 26.5q-3 -1 -20.5 -13t-38 -26t-39 -27.5t-24.5 -18.5q0 9 -16 8.5t-37 -4.5t-41.5 -9t-29.5 -5
h-7.5t-15.5 2l13 -96q-8 -16 -14.5 -34t-12.5 -18q-24 0 -24 14q0 19 -5.5 24.5t-5.5 15.5q0 -1 1.5 3.5t2.5 11t2 12.5t1 7q0 18 -9.5 24.5t-25.5 6.5q-10 0 -20 -1t-22 -1q-27 0 -50.5 24.5t-23.5 50.5q0 9 2.5 13t5.5 6t5.5 5t2.5 10v11t-1 10q-4 47 -5.5 76t-1.5 41v24
q0 9 1 15t1 8q0 13 4.5 45.5t9.5 67t9.5 61.5l4.5 27q4 30 7.5 50t5.5 30q7 24 11 42.5t8 31.5q2 17 6 26t23 9q14 0 32.5 -12.5t25.5 -12.5q22 10 52 17.5t64 7.5q125 0 209 -85q83 -84 83 -210zM389 -24q0 -11 -15 -11q-13 0 -16.5 4t-8.5 11l5 42q6 -3 23 -20
q12 -15 12 -26zM406 463q0 20 -2.5 43t-7.5 42.5t-13 32t-19 12.5q-9 0 -29.5 -8t-43.5 -18.5t-43.5 -21t-30.5 -15.5q0 -8 0.5 -36t1.5 -77t1.5 -70.5t0.5 -14.5q0 -15 2.5 -36t6.5 -43t9.5 -43t11.5 -37q74 22 111 91q44 82 44 199z" />
    <glyph glyph-name="e" unicode="e" horiz-adv-x="656" 
d="M498 517q0 -10 -19 -10q-16 0 -16 17q0 13 5.5 15t12 -2t12 -10t5.5 -10zM638 78q0 -9 -7.5 -22.5t-16.5 -27.5t-16.5 -25t-7.5 -15t3.5 -15t9 -23.5t11 -23t8.5 -13.5v-23h-15q-9 0 -14 4.5t-8 10t-5.5 10.5t-5.5 6q-31 11 -40.5 17.5t-9.5 31.5q0 10 1 15.5t1 12.5
q0 18 -17 22t-46 4q-19 0 -47.5 -2.5t-55.5 -6t-45.5 -6t-16.5 -2.5q-3 -1 -18 -1h-48q-32 0 -34 -1q-26 -5 -26 -27q0 -8 14 -25.5t14 -32.5q0 -12 -3.5 -17l-10.5 -15h-15q-13 12 -13 31q0 11 4 21t10 26q0 8 -24 22.5t-53 31t-53 33t-24 27.5q0 1 5 6t11.5 10.5
t11.5 10.5l5 5v2q-1 10 -2.5 29t-3 37t-2.5 31t-1 10v141l38 231q-8 13 -18.5 21t-10.5 25t26.5 26.5t62.5 14.5t74 6.5t62 1.5q58 0 130 -3q20 -1 55.5 -3t70 -6.5t60.5 -11.5t26 -18q0 -30 -25 -52t-25 -68l-16 -2q-16 -2 -16 10l0.5 6t1.5 14t1.5 15.5t0.5 10.5
q-4 2 -12 2q-4 0 -11 -4.5t-14.5 -10.5t-15 -10.5t-11.5 -4.5q-5 0 -17 9q-6 5 -26.5 5.5t-50.5 -0.5t-67 -2.5t-77 -1.5q-12 0 -15.5 -15t-2.5 -37.5t3.5 -49.5t2.5 -52q12 -3 13 -3.5t21 -0.5q21 0 49.5 3t60 7t64 7t60.5 3q20 0 43.5 -3.5t44 -11.5t34.5 -21t14 -32
q0 -10 -5 -23t-11.5 -25t-12 -20.5t-5.5 -9.5q-3 -6 -3 -10v-6q0 -4 1.5 -14t3.5 -20q0 -12 -18 -12q-23 0 -23 18q0 2 1.5 9t3.5 15t4 14l2 6q0 24 -16 24q-18 0 -29 -4t-11 -18q0 -5 3 -13t3 -10h-7h-14.5t-6.5 17q0 8 1 15t1 11q0 14 -17 14q-2 0 -113 -17
q-56 -9 -86 -13t-34 -4v-128h216q20 0 50.5 -5.5t59 -15t49.5 -23.5t21 -30zM574 -53l2 20q0 17 -2 21q0 4 -16 12q-4 -7 -7.5 -9.5t-4.5 -5t1.5 -7t9.5 -14.5q5 -5 9 -9.5t8 -7.5z" />
    <glyph glyph-name="f" unicode="f" horiz-adv-x="706" 
d="M572 496v-14q-8 -4 -16 -4q-20 0 -20 20l4 14h18zM682 599q0 -5 -9 -16t-19 -24t-19 -26t-9 -20q0 -5 9 -16.5t9 -21.5q0 -21 -26 -21q-31 0 -31 36q0 2 0.5 12.5t1.5 24.5t1 20l-10 5l-22 -24q-9 6 -13.5 13.5t-8 14t-8.5 11.5t-15 5q-4 0 -25 -2.5t-51 -6t-64 -8
t-63 -8.5t-49.5 -7t-22.5 -4v-144q103 0 171.5 -5.5t99.5 -14.5q93 -26 93 -113v-14.5t-1 -16.5l-1.5 -27t-0.5 -7l-15 -4q-5 -2 -10.5 4.5t-10 16t-7.5 19.5t-3 14v5l-3 21l-22 -17q-16 5 -25 15q-8 7 -24 8.5t-32.5 0t-30 -4t-16.5 -2.5q-99 -9 -162 -9v-227
q0 -12 -10 -24.5t-21.5 -24.5t-21.5 -23.5t-10 -21.5q0 -6 4.5 -14t10.5 -16.5t10.5 -16.5t4.5 -14q0 -21 -24 -21q-11 0 -20.5 20.5t-16 39.5t-10 24t-3.5 -26q0 -9 -3 -16l-12 -4q-11 8 -12.5 11.5t-8.5 14.5v58q10 4 15 4q16 0 20 -9t10 -22q8 10 8 25q0 2 -57 34
q-37 21 -51 61t-14 98q0 90 24 199q9 40 21 92.5t27 115.5q0 2 -7 9.5t-16 17.5t-16 20.5t-7 18.5q0 15 23.5 23.5t59 12.5t77.5 5t80 1q99 0 169 -3.5t111 -10.5q110 -19 110 -73z" />
    <glyph glyph-name="g" unicode="g" horiz-adv-x="872" 
d="M850 210v-89l-16 -2q-14 -1 -20.5 7.5t-6.5 21.5q0 18 5.5 29.5t-1.5 25.5q-17 6 -39 -1t-36 -10q-28 -7 -47 -11t-27 -8q32 -29 32 -65q0 -12 -7.5 -28t-14.5 -33q0 -3 8 -12t17 -20.5t17 -23t8 -19.5q0 -17 -32 -17q-28 0 -38.5 17.5t-10.5 43.5q0 8 2 23t4 27
q-15 -10 -20 -33.5t-5 -46.5q0 -15 1 -30t3 -30q3 -22 5 -34.5t4 -33.5l-19 -2q-16 -2 -26 15t-10 31q0 3 3.5 12.5t7.5 20.5t7.5 20.5t3.5 12.5q0 21 -23.5 36.5t-48.5 15.5l-120 -17q-3 -1 -14 -1h-14q-28 0 -52 3q-18 2 -27.5 3.5t-16 -1t-12 -12l-16.5 -28.5
q16 -13 28 -25.5t12 -37.5l-10 -20h-14q-30 26 -30 56q0 1 1.5 8.5t3.5 16t3.5 15.5t1.5 8q0 11 -19 25t-41.5 26.5t-41 21t-17.5 7.5q-60 51 -82 96q-20 43 -20 95q0 24 7.5 49t21.5 54q11 24 33.5 56.5t50 67t58 66.5t58.5 54q94 77 161 77q73 0 153 -43q93 -51 117 -125
q3 -12 3 -25q0 -17 -4.5 -31t-7.5 -24q0 -6 5 -11.5t11 -11t11 -11t5 -10.5q0 -9 -10 -19t-19 -10q-24 0 -36 9t-12 33q0 16 3.5 28.5t11.5 27.5q0 15 -44 16q-20 1 -39.5 11t-37 24t-31 29.5t-22.5 27.5q-4 6 -11 16t-17 23q-16 -10 -41 -40.5t-51 -67.5t-49 -72t-33 -55
q-57 -108 -57 -182q0 -18 10 -33.5t25.5 -27t34 -18.5t35.5 -7q16 0 34.5 3t34.5 7.5t26.5 10t10.5 9.5q-32 19 -51 37q-25 23 -25 45q0 15 30.5 27t74 20t91.5 12.5t84 4.5q92 0 152 -20q62 -19 62 -50zM350 -126q0 -10 1 -11.5t3 -6.5q-2 -2 -6.5 -4.5t-10.5 -5.5l-23 16
v50h20q9 -10 12.5 -16t3.5 -22z" />
    <glyph glyph-name="h" unicode="h" horiz-adv-x="826" 
d="M804 150q0 -15 -12 -27h-28q-1 5 -3 17.5t-2 15.5q0 12 6 22q11 15 18 16.5t12 -5.5t7 -18.5t2 -20.5zM804 324q0 -16 -8 -23q-10 -15 -2.5 -31.5t7.5 -31.5l-17 -2q-6 -1 -13 7.5t-7 21.5q0 22 16 44q-5 3 -8.5 5t-7.5 4q-44 0 -57 -18.5t-13 -63.5v-116
q0 -16 -18 -31.5t-39 -30t-39 -27.5t-18 -24q0 -9 3.5 -22.5t9.5 -32.5q3 -9 7 -19t4 -18.5t-6 -13.5t-22 -5q-17 0 -24 11.5t-8 27.5t1.5 32.5t5.5 26.5q6 23 9 35t2.5 19.5t-4.5 14.5t-10 21q-9 14 -14 42t-9.5 58t-11 56t-17.5 36q3 1 -30 -3t-76 -10t-84 -13.5
t-54 -13.5q0 -40 -1 -71t-3 -53q-2 -14 -6 -34t-4 -41q0 -28 1 -50.5t3 -39.5q2 -13 4.5 -33.5t5.5 -48.5q-5 -1 -8 -1.5t-4 -0.5h-8q-30 0 -30 43q0 2 3 14.5t6.5 28.5t6.5 30t3 18q0 12 -7 15t-16 2.5t-18 -3t-14 -2.5q-67 0 -102 53q-31 47 -31 124l25 266q1 8 4.5 22
t7.5 36q4 20 8.5 42t8 41t5.5 31l2 12q8 28 16 36q8 5 28 7t43 6q19 0 33 -14.5t24 -36t15 -47t5 -47.5v-121q0 -7 -4 -23.5t-4 -23.5q0 -20 22 -20q14 0 23.5 1t16.5 3q27 6 98 12q14 2 32.5 2.5t36 3t29.5 8t12 18.5q0 10 -1 23t-1 40q0 25 6 55t8 41q12 91 17 105
q12 21 50 21q57 0 69 -84q8 -47 12 -81.5t12 -79.5q6 -33 6 -46q0 -6 16.5 -12t36.5 -14t36.5 -18.5t16.5 -25.5zM660 -12q0 -4 -1 -10t-1 -42h-22q-2 8 -4 12.5t-4 7.5q-6 15 4 35.5t10 45.5q13 -6 17.5 -11t4.5 -10.5t-2 -12t-2 -15.5z" />
    <glyph glyph-name="i" unicode="i" horiz-adv-x="251" 
d="M226 48q0 -20 -10 -33.5t-32 -13.5q-51 0 -102 42q-64 54 -64 135v50l3 24l3 24l21 214q0 88 19 145q18 58 50 58q18 0 36.5 -20t33.5 -47.5t24.5 -56.5t9.5 -48q0 -37 0.5 -82.5t1.5 -98.5q2 -116 4 -189t2 -103zM218 -140q-12 -8 -28 -8q-25 0 -25 15q0 11 12 29
q3 3 1 6.5t-6 8t-8 10t-4 13.5t7.5 25t16.5 17q12 0 18 -8t6 -18q0 -19 -4 -28.5t-14 -19.5q3 -7 8 -14q8 -11 13 -18t7 -10z" />
    <glyph glyph-name="j" unicode="j" horiz-adv-x="507" 
d="M484 377v-216q0 -17 -30 -95q-29 -74 -37 -82q-13 8 -21.5 23t-23.5 15q2 0 -9.5 -3.5t-27 -8t-31.5 -8t-22 -3.5q-48 0 -106 28t-104 68q-11 -8 -14.5 -17.5t-3.5 -23.5v-11q0 -12 -3 -21q0 38 -13.5 73.5t-13.5 56.5q0 35 25 62.5t65 27.5q14 0 32 -16t38 -48
q39 -66 104 -66q14 0 21 16t10 43.5t3 65v81.5v57t-2 73q-2 39 -3 72t-1 60q0 49 14 78.5t57 29.5q20 0 35 -14t24.5 -35.5t14.5 -48t5 -50.5q6 -38 12 -83t6 -80zM446 -110q0 -12 -20 -12q-17 0 -26.5 15t-9.5 31q2 10 8 28t16 18t16 -8t9.5 -20t5 -26t1.5 -26zM114 12v-62
q-10 4 -23 15l4 63q13 -6 19 -16zM86 -77v-15l-16 -2q-11 0 -16 14t-5 34q0 31 5 30.5t11.5 -13t12.5 -29.5t8 -19z" />
    <glyph glyph-name="k" unicode="k" horiz-adv-x="684" 
d="M528 394q-4 -7 -5 -17.5l-1 -10.5q0 -9 4 -17l-28 -3v14v21q0 20 4.5 26.5t10.5 5.5t10.5 -7t4.5 -12zM509 322l19 -14l-6 -17h-9q-5 0 -10 8.5t-5 9.5q0 4 2 5q2 2 4.5 4t4.5 4zM660 -9q0 -3 -6 -13h-15q-1 14 -11.5 19.5t-26.5 5.5q-23 0 -30 -13t-19 -25q0 43 -56 61
q-44 13 -74 26.5t-48 26.5q-32 23 -55 43t-45 43q-24 25 -41 39t-25 17v-41q4 -8 8.5 -34t9 -54.5t7.5 -51.5t3 -26q0 -18 -6 -22t-15 -1.5t-20.5 7.5t-23.5 5q-92 0 -122 89q-9 28 -14 74t-5 110q0 15 -1 38.5t-2 48.5t-2 48.5t-1 38.5q0 24 6 76q3 27 6 49.5t7 40.5
q7 44 23 59q16 14 34 14q23 0 42 -25q15 -20 22 -44t9.5 -52.5t1.5 -61t-1 -68.5l10 -6q50 57 73 82q34 37 87 82q20 20 33 30q40 32 67 32q36 0 55 -31.5t23 -71.5q2 -6 2 -10.5v-8.5v-16q0 -13 0.5 -36.5t-11.5 -35.5h-13q-5 6 -9.5 17t-4.5 19v21q0 13 -4 16t-9 -0.5
t-10.5 -10.5t-8.5 -12q-26 -50 -46 -71q-11 -13 -26 -27.5t-28.5 -27t-22.5 -23t-9 -16.5q0 -5 86 -83q32 -29 54.5 -51t37.5 -36q57 -51 88.5 -79.5t37.5 -33.5q34 -31 34 -59zM660 -98q0 -14 -19 -14q-7 4 -11 6t-4 11q0 5 5 17q6 15 11.5 16t9.5 -5.5t6 -16t2 -14.5z
M574 -72v-21h-12q-1 0 -2 6.5t-2 9.5q-2 15 3 12.5t13 -7.5zM574 -150h-12l-10 15q0 1 3.5 8t6.5 15h12q3 0 1.5 -15t-1.5 -23zM242 -96v-12q-14 -2 -26.5 4.5t-12.5 24.5q0 23 7.5 26t15.5 -4.5t13.5 -19.5t2.5 -19z" />
    <glyph glyph-name="l" unicode="l" horiz-adv-x="706" 
d="M691 22q0 -19 -4.5 -28t-18.5 -20q0 12 2 22q2 13 1.5 20.5t-3.5 21.5l-8 3q-4 2 -11 -7t-13 -21t-10 -22.5t-4 -12.5q0 -12 9.5 -21t24.5 -9q22 0 22 -14q0 -6 -3 -15l-15 13q1 -1 -14 -7t-18 -6q-12 0 -20 4.5t-8 14.5q0 6 2 15t5 17.5t5 15t2 7.5q0 21 -13.5 27
t-34.5 5t-46.5 -5t-49.5 -4h-30.5t-47.5 2q-28 1 -48 1.5t-34 0.5q-42 0 -42 -36q0 -10 6 -28q0 -11 2.5 -24t-18.5 -13q-18 0 -18 17q0 8 3.5 23t3.5 23t-1 10q-84 0 -121 32q-16 17 -40 17l-15 -3q0 -17 -4 -19.5t-10.5 4t-14.5 20t-17 27.5q-10 17 -4 24.5t17 13.5t22 15
t11 29q0 58 2 99t3 65q1 52 1.5 98t0.5 86q9 28 4.5 40t-4.5 28q0 18 4 39t10.5 39t14 30.5t14.5 12.5q51 0 87 -58q35 -58 35 -151q0 -8 1 -41t1 -92q0 -44 1 -73t1 -27v-61t1 -26q2 -17 11 -23.5t33 -6.5q9 0 25 1t38 2q29 1 44 1.5t16 0.5q100 0 157.5 -5.5t80.5 -17.5
q39 -20 39 -90zM274 -123l-10 -2v15q0 -2 4 -6.5t6 -6.5zM72 -10v-12q-10 0 -16 6v14l8 -4z" />
    <glyph glyph-name="m" unicode="m" horiz-adv-x="808" 
d="M786 88q0 -21 -2 -44.5t-5 -45t-7 -37t-7 -19.5q-2 16 -15 26q-2 -4 -2 -9t-2 -9q0 -13 -5.5 -16.5t-12.5 -0.5t-12.5 11t-5.5 17q4 27 -9.5 33.5t-40.5 23.5q-18 12 -27 23t-13.5 22t-7 23.5l-5.5 27.5q-21 64 -27 107q-6 41 -10 63t-6 25q-3 -2 -15.5 -30t-26.5 -61
t-26 -60.5t-12 -28.5q-11 -42 -21 -65q-1 -3 -7.5 -20.5t-15.5 -37.5t-19.5 -36t-18.5 -16q-3 0 -11 6t-18.5 14t-20.5 17t-17 16t-10.5 19t-6.5 26.5t-7 31.5t-13 34q-13 22 -27 48t-29 56q-20 44 -40 60l-6 -350q0 -9 -7 -12.5t-15 -3.5q-13 0 -14.5 7t-1.5 15v21
q0 21 -8.5 31.5t-21.5 17.5t-29.5 13.5t-32.5 20.5q-40 32 -40 58v201l51 246q-1 5 -6.5 13.5t-11.5 18t-11 18.5t-5 13q0 16 19 16h30q2 0 6.5 5t10 11t11.5 11t12 5q34 0 43 -29.5t13 -72.5q10 -10 29.5 -34.5t41.5 -54.5t42.5 -60.5t33.5 -54.5q19 -32 30.5 -50t15.5 -22
q4 2 19 31t31.5 64t30 64.5t14.5 32.5q10 32 33 75q1 3 6 10t10 16.5t9 19.5t4 19q0 1 -1.5 9.5t-3.5 18t-3.5 18t-1.5 10.5q0 12 6 21t19 9q12 0 28 -8t21 -8q3 0 17.5 5.5t25.5 5.5q44 0 61.5 -22t17.5 -64v-13t-1 -10q-1 -5 -1 -10.5v-10.5l-1 -27q-23 13 -23 24l1 6
t1 10q0 5 -2.5 3.5t-5.5 -5t-5.5 -7t-2.5 -2.5q1 1 10 -30t21.5 -74.5t24.5 -90t19 -74.5q27 -123 27 -208zM414 -84q0 -2 -3 -14t-3 -16q0 -9 2 -13h-18q-2 0 -4 8.5t-6 20.5q-2 10 -4.5 16.5t6.5 19.5q30 -9 30 -22zM188 -135h-22q-12 16 -7.5 20t4.5 11h21q3 -4 4.5 -8
t3.5 -8q0 -4 -4 -15z" />
    <glyph glyph-name="n" unicode="n" horiz-adv-x="660" 
d="M52 559l-9 -3q-8 8 -9 8v24h14q4 -13 4 -29zM618 200l20 -174q1 -5 1 -17t-5 -24.5t-10.5 -23.5t-10.5 -19.5t-5 -13.5q8 -22 12 -43t6 -37h-22q-16 16 -16 36q0 2 1.5 12.5t2.5 19t1 9.5q0 33 -35 63q-121 105 -144 137l-79 105q-11 14 -16 21t-8.5 12.5t-8 13
l-13.5 22.5q-16 24 -29 36l-6 -5q11 -45 12 -52q12 -63 12 -120l-27 -237q-1 -9 6 -18.5t21 -22.5v-8q0 -4 -8 -5t-7 -1q-20 0 -27.5 15t-7.5 37v16.5t2 16.5q0 29 -10.5 41.5t-38.5 12.5h-14q-10 0 -27 -4q-25 29 -49.5 56.5t-24.5 52.5v57v52v46q2 24 5 42t5.5 34
t4.5 32.5t2 38.5v76l15 77q2 7 -2.5 16t-12 17.5t-16 14t-15.5 5.5q-26 0 -32 11t2 27q6 12 14 12q11 0 29.5 -7.5t40.5 -14.5q4 3 6 9t4.5 11.5t7 10t13.5 4.5q19 0 33 -11.5t23.5 -28.5t16.5 -36.5t13 -36.5l9 -9t18.5 -19.5t22 -23.5t18.5 -20q3 -3 23 -30.5t44 -61
t46 -63t28 -36.5v162q0 14 5.5 42.5t14.5 57.5t20.5 51t23.5 22q24 0 38.5 -17.5t23.5 -47t15.5 -68.5t13.5 -82q9 -53 15 -89t10 -54q10 -49 10 -62q0 -8 -4 -20zM171 -58v-24h-23v60q14 -11 16 -19.5t7 -16.5zM175 -123l-4 -5h-15q1 0 1.5 7.5t0.5 8.5q2 8 4.5 8t5.5 -3.5
t5 -8.5t2 -7z" />
    <glyph glyph-name="o" unicode="o" horiz-adv-x="644" 
d="M620 265q0 -29 -4 -56.5t-13 -54.5q-3 -8 -11.5 -28t-17 -45.5t-15.5 -53t-7 -51.5v-21q0 -7 9 -25t9 -32q0 -21 -30 -21q-20 0 -30 19q-16 25 -7 39t15 31q22 53 22 94v12q0 17 -18 5.5t-49 -30.5q-24 -13 -43.5 -27t-19.5 -40v-21q0 -18 -18 -27q0 70 -80 71
q-40 1 -80.5 15.5t-85.5 41.5q-24 14 -45.5 37.5t-42.5 60.5q-34 61 -34 130q0 63 36 146q51 115 143 173q23 15 40 25t27 15q71 37 113 37q3 0 14 -11t25.5 -27t30.5 -32t29 -27q9 -8 21 -22.5t24 -30t21.5 -29.5t13.5 -21q39 -82 48 -114q10 -41 10 -105zM432 -140
q0 -2 -2.5 -8.5t-2.5 -7.5h-25q-15 18 -15 32q0 9 4.5 13.5l10.5 10.5h15q11 -22 10 -22q5 -17 5 -18zM454 278q0 54 -6.5 101t-18.5 87q-30 96 -67 121q-40 -28 -71.5 -69.5t-54.5 -100.5q-33 -87 -33 -160q0 -61 15 -93q27 -56 110 -56q70 0 103 68q23 46 23 102z" />
    <glyph glyph-name="p" unicode="p" horiz-adv-x="587" 
d="M568 490q0 -50 -28.5 -94t-85.5 -78q-22 -13 -57 -29.5t-81 -39.5q-11 -10 -19.5 -33.5t-8.5 -39.5q0 -13 4 -20v-27l-20 -3q-6 18 -6 36q0 15 2 19q2 23 -2.5 37t-27.5 24l-27 -320h-4q-25 0 -25 24q0 14 1 23t1 17q0 19 -3 28l-9 6q-4 -4 -7 -7.5t-4 -5.5
q-7 -10 -11 -2.5t-10 17.5q0 5 -11.5 16.5t-25.5 23t-26 20.5t-13 10q-16 20 -23 52t-7 67q0 23 3.5 57t10.5 79q5 35 13.5 79t8.5 104l-19 4q-11 -19 -11 -36q0 -13 1 -16q5 -41 -2 -34t-15 50q-16 40 0 65.5t62 50.5q8 5 12 17.5t8.5 25.5t12.5 23t23 10q25 0 35 -6
t26 -24q33 12 71 24t58 12q64 0 138 -47q98 -60 98 -159zM156 -35q0 -3 -10 -18h-14q0 13 -2.5 17t7.5 14q6 -2 12.5 -4t6.5 -9zM417 563q0 37 -7 43q-9 10 -58 10q-52 0 -82 -9q-45 -14 -50 -47l14 -194q72 19 130 86q53 60 53 111z" />
    <glyph glyph-name="q" unicode="q" horiz-adv-x="678" 
d="M666 -39q0 -15 -6 -39t-6 -52q0 -14 -26 -14q-18 0 -18 16q0 2 1.5 9.5t3.5 16.5t3.5 17.5t1.5 12.5q0 11 -4 14h-36q0 -3 -2 -19t-2 -21v-31q0 -12 1.5 -19.5l2.5 -12.5l-12 -2q-8 -1 -20 7.5t-12 13.5q0 4 8.5 15t8.5 17q0 13 -11 31t-28 36.5t-36.5 35.5t-35.5 29
q-10 -4 -16.5 -13t-11.5 -19.5t-9.5 -20.5t-12.5 -16q-7 9 -6.5 17t0.5 18q0 9 -18.5 17.5t-43 16.5t-49 14.5t-35.5 10.5q-34 12 -61.5 26.5t-49.5 32.5q-58 48 -85 120q-10 27 -15 54t-5 54q0 55 28.5 101.5t69.5 102.5q14 20 37 42t57 46q86 63 150 63l18 -12t16 -11
q25 -16 51.5 -35t38.5 -27q14 -8 28 -19t26 -24q27 -31 44.5 -68t31.5 -69q21 -50 21 -123q0 -37 -6.5 -71t-20.5 -56q-18 -27 -33 -46.5t-25 -33.5q30 -22 42 -30q38 -28 53 -50.5t15 -52.5zM424 -116q0 -9 -7 -12.5t-15 -3.5q-5 0 -11.5 8t-4.5 24l4 25h12q19 -16 20 -23
t1.5 -11.5t0.5 -6.5zM458 400q0 24 -6.5 55t-18.5 61t-27.5 54.5t-33.5 36.5q-41 -27 -75 -66t-57 -85q-18 -37 -27.5 -70.5t-9.5 -65.5q0 -19 4 -42.5t12 -46t19 -41.5t25 -29q24 -8 35 -19h18q-36 53 -57 94q-9 20 -1.5 27t36.5 7q10 0 27.5 -4.5t35.5 -10.5t33 -13.5
t20 -13.5q30 30 42 105q3 23 6 67z" />
    <glyph glyph-name="r" unicode="r" horiz-adv-x="684" 
d="M666 42v-90l-12 -2q-8 -1 -17 26q-6 24 -13 26t-12.5 -7t-9.5 -24t-4 -25q0 -14 1 -16v-21q-5 4 -10 21t-9.5 35.5t-7 32.5t-0.5 12q0 1 -10.5 5.5t-26 11t-32 13.5t-28.5 13q-10 6 -42.5 32t-67 55t-62 52.5l-27.5 23.5h-8v-41t2 -43q6 -112 6 -135q0 -20 -4.5 -38
t-14.5 -42q-12 5 -17.5 10.5t-5.5 16.5q0 5 3 15.5t3 14.5q0 16 -10 22t-32 10q-33 2 -56 23.5t-48 40.5q-7 -4 -9.5 -6t-4.5 -13q-9 3 -15.5 7t-6.5 14v69t2 113v41.5v25v20.5v27q-2 9 -14 20.5t-12 17.5q27 16 39 52.5t12 85.5q0 4 -5 9h-14q-5 -16 -9.5 -37.5t-4.5 -43.5
q-12 -6 -20 2t-8 14q0 85 20 109q54 33 60 36q9 5 13 11.5t7 12t8 9.5t16 4q2 0 13 -1t25.5 -2t16.5 -1q-4 0 18 3.5t49.5 8t49.5 8t18 3.5q101 0 194 -61q78 -52 78 -132q0 -49 -12 -79.5t-38 -51.5t-66 -37.5t-96 -36.5q6 -6 33.5 -25.5t61 -42.5t64.5 -45.5t43 -33.5
q66 -60 66 -102zM679 -116v-15q-9 -5 -17 0t-14 13t-9 17.5t-3 14.5q0 22 5.5 21.5t12.5 -11t14 -23.5t11 -17zM249 -112l3 -34h-12l-14 12q2 -2 4 5t2 17h17zM80 -14q0 -8 -7 -15.5t-7 -15.5q0 -5 2.5 -13t-6.5 -8q-12 0 -15.5 8t-3.5 21q0 1 2.5 7.5t5 15.5t5 19t2.5 17
q10 -7 16 -14.5t6 -21.5zM452 546q0 25 -23 34q-29 8 -73 8q-20 0 -37 -2t-33 -6q-48 -10 -48 -38q0 -27 8 -65.5t15 -64.5q102 37 109 40q82 39 82 94z" />
    <glyph glyph-name="s" unicode="s" horiz-adv-x="678" 
d="M654 200q0 -30 -10 -56.5t-18 -41.5q-18 -48 -48 -68q-17 -8 -30.5 -13.5t-13.5 -20.5q0 -3 1.5 -12.5t3.5 -22.5t3.5 -26t1.5 -22q0 -18 -10.5 -23.5t-23.5 -5.5q-9 0 -15.5 7t-6.5 16q4 5 6 10t4 9q12 22 12 40q-5 3 -9 10.5t-7.5 14.5t-8 13t-9.5 6q-26 0 -34 -30
t-16 -69q-20 7 -20 34q0 2 0.5 10.5t1.5 18.5t1.5 17.5l0.5 7.5l-94 -2q-56 -1 -104 15t-86 44q-36 29 -70 29q0 7 -5.5 17.5t-11.5 21t-11.5 20.5t-5.5 16q0 12 12 29.5t28 17.5q27 0 106 -44q28 -15 74 -45q16 6 27 10.5t19 7.5q24 11 45 24t37 28q11 6 42 52q10 14 18 25
t14 20v21q-8 4 -21.5 1.5t-26 -7t-22.5 -9.5l-12 -6q-72 -30 -76 -40q-2 -1 -2 -21q0 -6 1.5 -16t1.5 -20.5t-2 -18t-9 -7.5q-14 0 -23 7.5t-9 22.5q1 2 7.5 16.5t14.5 30t8 14.5l-19.5 8.5t-44 21.5t-47.5 27t-31 25q-4 5 -13 20.5t-18.5 33.5t-16.5 33.5t-7 21.5
q12 39 28 68t41 54q14 14 46 32.5t71 35t77 28.5t64 12q25 0 58.5 -12.5t65.5 -33.5t59 -48.5t39 -57.5q0 -2 4.5 -9t9.5 -14.5t9.5 -13.5t4.5 -7q-18 -16 -32 -31.5t-14 -31.5q14 -16 21 -25.5t7 -21.5q-2 -6 -5 -12t-5 -12h-24q-3 7 -5.5 22t-2.5 19q0 3 1 10.5t1.5 15.5
t1.5 13.5t1 4.5q0 17 -12.5 25.5t-31.5 13.5q-43 13 -73 50t-56 70q-15 -5 -38.5 -27.5t-47.5 -51t-45 -58t-31 -47.5v-24l35 7.5t33 6.5q46 10 72 10q68 0 145 -46q105 -63 105 -162zM429 -131q0 -8 -6 -11q-16 -8 -20.5 1.5t-2 21t9 18t12.5 -8.5q7 -3 7 -21z" />
    <glyph glyph-name="t" unicode="t" horiz-adv-x="722" 
d="M632 503l6 -23h-22q1 8 2.5 13t1.5 10h12zM706 587q0 -4 -4.5 -28t-11 -51.5t-13.5 -51t-11 -26.5q-27 10 -27 24q0 3 25 50q12 24 12 30q0 20 -15.5 22t-15.5 -12q0 -18 -4 -23h-13v17q0 28 -12.5 32t-45.5 4h-150v-84l30 -220v-74q0 -4 -1 -15t-1 -20q0 -28 2 -34
q0 -19 -5.5 -34.5t-9.5 -24.5q-22 -53 -51 -94q-3 -6 -3 -11q0 -6 4 -21t4 -27q0 -11 -0.5 -19t-1.5 -12q-5 -14 -23 -14q-10 0 -15 13t-5 23t6 20t12.5 18.5t12.5 15.5t6 12q0 19 -14.5 31.5t-38.5 18.5q-14 -15 -12 -22t2 -20q0 -16 -5 -13t-14 20t-22 47t-30 68
q-21 45 -21 115l38 369q-79 0 -142 15q-76 18 -98 57v10q15 3 38 6.5t48.5 6t51.5 4.5t46 2h60.5t49.5 1t50 1h61q151 0 197 -13q80 -21 80 -89zM316 -68v-30l-15 -2l-0.5 6.5t-1.5 13.5t-1.5 13.5l-0.5 6.5q9 0 19 -8zM316 -172v-14h-19q-16 21 -4 25.5t23 -11.5z" />
    <glyph glyph-name="u" unicode="u" horiz-adv-x="587" 
d="M562 -9q-5 2 -28 9q0 -26 -4 -53.5t-4 -71.5q-2 2 -7 19t-11 38t-13 40t-13 25q-3 2 -13.5 7t-24 11.5t-26.5 14.5t-22 15q-4 0 -18 -4t-29 -10.5t-27 -14.5t-12 -16l34 -98q1 -2 -16 -2q-5 0 -10.5 5.5t-10 12.5t-8 13t-5.5 7v-46q20 -9 18 -16t-5 -20h-21q0 10 -1 27.5
t-3 36.5t-5 36t-7 26q-8 16 -32.5 32.5t-51.5 31t-49.5 24t-24.5 11.5q-28 27 -48.5 56.5t-27.5 58.5q-4 20 -7.5 52.5t-8.5 75.5q3 14 9.5 42t8.5 44q2 17 3.5 35t1.5 37q0 6 1.5 24t1.5 44v26q0 8 1.5 26.5t6.5 37.5t14 33.5t24 14.5q68 0 96 -87q20 -65 20 -135v-146
q0 -26 7.5 -59.5t21 -64.5t33.5 -52t46 -21q33 0 49 10.5t16 35.5q0 5 -3.5 20.5t-3.5 17.5q0 68 3 178q3 108 3 179q0 15 3 36t9.5 40t16.5 32.5t23 13.5q53 0 85 -75t32 -217v-70q0 -12 -0.5 -28.5t-0.5 -38.5q0 -69 3 -109q0 -10 4 -30.5t7 -43.5t4 -45.5t-4 -37.5z
M574 -38q0 -4 -3 -8.5t-3 -6.5h-16v31l10 6q12 -15 12 -22z" />
    <glyph glyph-name="v" unicode="v" horiz-adv-x="694" 
d="M656 338q0 -11 -7 -21.5t-17 -15.5h-14q-10 23 -6.5 38t16.5 29h14q6 0 10 -12t4 -18zM678 553l-31 -160h-29q1 3 2 12l2 18t1.5 15.5t0.5 5.5q0 22 -6 34l-172 -391q20 -34 25 -46q5 -15 5 -21q0 3 -3 -14t-7 -37.5t-7 -37.5t-3 -14l-10 -2q-5 -1 -10 10t-12 24.5
t-18.5 25t-30.5 11.5q-9 0 -13 -8t-7 -18t-8 -18t-15 -8q-13 0 -16.5 6t-3.5 19v19v10.5t-2 13.5q-3 12 -21.5 37t-41 54.5t-43.5 59.5t-29 53q-12 32 -19.5 53t-11.5 32q-12 27 -28.5 69t-36.5 98q-55 152 -55 198q0 33 38 33q21 0 46 -19t50.5 -48t48.5 -63t39 -65
l106 -210q1 2 18 32t37 66t36.5 66t17.5 32q4 9 14 28t20.5 39.5t20 37.5t12.5 22q26 47 52.5 49t53.5 -17q44 -32 44 -86zM454 -125q0 -21 -5.5 -28.5t-11.5 -7.5t-11.5 6.5t-5.5 14.5t4 18.5t9 19.5h15q8 -11 8 -14q0 -5 -2 -9zM356 -123l-4 -8h-18l-6 8l6 13h13
q9 -9 9 -13z" />
    <glyph glyph-name="w" unicode="w" horiz-adv-x="952" 
d="M924 628v-18q0 -72 -42 -218q-15 -54 -38 -122t-42 -122q-15 -43 -35.5 -82.5t-20.5 -73.5v-6q0 -12 8 -25q5 -10 4.5 -15t-3.5 -8.5t-6 -8.5t-3 -14q0 -4 5 -22.5t5 -27.5q-7 -5 -10 -5q-10 0 -20 8t-10 18q0 8 11 17t11 14q0 19 -20 25.5t-52 16.5v-24t-2 -37
q-3 -33 -8 -40h-15q-5 5 -7 19.5t-4 37.5q-3 47 -14 93t-38 81q2 -2 -8.5 21.5t-27 57t-34 70t-29 59.5l-12.5 25q-12 -9 -25 -33.5t-24 -54t-18 -57t-7 -42.5q0 -5 13 -25q9 -13 14 -19.5t7.5 -11.5t2.5 -10v-16q0 -7 -2.5 -23t-5.5 -32t-5.5 -29t-2.5 -16v-4
q0 -17 7.5 -37t7.5 -32q-1 -2 -2 -9.5t-1 -16.5l-12 -2q-6 0 -17.5 6t-24 14.5t-22.5 17.5t-13 15v35h23l18 -20q12 14 13.5 34t1.5 37q0 4 -7 12q-13 -7 -13.5 -22t-4.5 -26h-14q-18 53 -66 71q-51 18 -54 24q-2 2 -3 10t-2.5 18t-3 19t-4.5 13q-39 90 -42 99
q-12 28 -19 48t-10 32q-4 13 -15 40.5t-29 70.5q-14 35 -30 73.5t-31 74.5q-31 77 -31 91q0 9 13 15t22 6q57 0 93 -64q7 -12 21 -35t29 -48.5t28.5 -50t21.5 -39.5q8 -16 13.5 -30.5t8.5 -28.5l12 -6q9 12 19.5 33t20.5 45t19.5 47t18.5 38q1 1 9.5 24t21.5 50.5t30.5 50
t36.5 22.5q16 0 37 -21.5t41 -51t36.5 -60t22.5 -49.5t17 -46t25 -64q7 -17 15.5 -39t19.5 -48q-3 -5 13 31t39.5 90.5t48.5 118.5t40 115q1 25 8.5 37.5t31.5 12.5q41 0 59 -14.5t18 -51.5z" />
    <glyph glyph-name="x" unicode="x" horiz-adv-x="608" 
d="M590 24q0 -3 -2 -15.5t-4.5 -26.5t-5 -26.5t-4.5 -15.5h-22q9 10 9 20q0 26 -5 35.5t-13 11.5t-17.5 -1t-19.5 -3q-63 0 -110 44q-14 13 -29.5 32t-32.5 39q-2 -1 -20 -17.5t-38.5 -38t-37.5 -43.5t-17 -35q0 -8 9 -28t16 -33v-18l-14 -3q-21 -5 -30.5 13.5t-9.5 49.5v13
q0 33 -9 43.5t-29 10.5t-20 -25q0 -15 5.5 -33t12.5 -40h-21q-7 8 -13 19t-6 27q0 11 1 20.5t1 17.5q0 16 -8 29.5t-8 28.5q0 26 58 112q59 87 59 98q0 7 -19 41t-43.5 75t-48 79.5t-32.5 54.5q-52 95 -52 104q0 42 46 42q52 0 137 -98q31 -34 57 -64.5t56 -65.5
q4 4 16 23.5t28 45t33.5 54t32.5 51.5q11 16 17.5 26.5t8.5 13.5q22 22 44 22q25 0 50.5 -15.5t33.5 -39.5l10 -177q2 -26 -5.5 -31t-17 1t-17.5 17.5t-8 20.5q0 10 2.5 22.5t5 24.5t5 20.5t2.5 10.5q0 19 -10 30q-5 -4 -21.5 -36t-37.5 -74.5t-42.5 -88t-35.5 -77.5
q6 -7 24.5 -31.5t39.5 -54t40.5 -57t27.5 -39.5q23 -36 35.5 -58.5t12.5 -33.5zM580 -135v-9h-15q-11 14 -12 16t-1 14q0 13 3 16q25 -9 25 -37zM156 -124l-8 -11q-9 5 -16 10t-7 15q0 12 5 13.5t10.5 -2.5t10.5 -11.5t5 -13.5z" />
    <glyph glyph-name="y" unicode="y" horiz-adv-x="712" 
d="M694 379q0 -11 -6 -13t-14 2t-14 12.5t-6 19.5q3 6 4 12t4 13h13q11 -10 15 -24t4 -22zM694 545v-75q-6 -6 -7 -9t-12 -3q-21 0 -21 48v26v28l-9 6q-1 2 -14 -16.5t-27 -43.5q-64 -112 -64 -129q0 -4 4 -13.5t9 -21t10.5 -21.5t8.5 -15v-68l-20 -2q-12 -1 -18 9t-9 23
t-5 25t-5 16q-19 -18 -40.5 -49.5t-39.5 -75.5q-20 -49 -42 -106.5t-41 -103.5h-14q-6 9 -9 14.5t-5 6.5q-8 17 -14.5 15t-10.5 -13.5t-6 -26t-2 -23.5h-13q-5 19 -8.5 35t-3.5 34q0 28 -16 41.5t-31 28.5q-21 22 -21 43q0 -3 6.5 14t17 44.5t22 60t22 60t17 44.5t6.5 14
q0 6 -24.5 31t-56.5 55t-62 58t-40 39q-33 36 -59.5 62.5t-26.5 42.5q0 4 8.5 9t19.5 9.5t23.5 7t19.5 2.5q19 0 53 -17t73.5 -42.5t79.5 -56t73 -58.5q46 53 68.5 79.5l22.5 26.5q73 74 134 74q39 0 65.5 -12t26.5 -43q0 -7 -1.5 -16.5t-3.5 -15.5q2 -18 7 -33q5 -18 5 -23
zM362 -84v-16h-13h-8h-17v44l10 6h13q2 -9 4 -12q1 -4 4.5 -10t6.5 -12z" />
    <glyph glyph-name="z" unicode="z" horiz-adv-x="814" 
d="M794 70q0 -27 -20 -56q-14 -20 -16.5 -33t0 -23t6.5 -19.5t4 -21.5q0 -19 -5 -29.5t-27 -10.5q-16 0 -22 12t-6 30q0 17 5 36t9 42q-17 6 -25 -12.5t-8 -33.5q0 -19 -4 -23h-13q-2 0 -2 6q0 4 3 16.5t3 14.5q0 20 -17.5 33.5t-40.5 13.5q-19 0 -36.5 -4.5t-25.5 -4.5
h-247l-6 -7t-14 -16q-11 -11 -11.5 -24.5t3 -27t8.5 -26t5 -22.5q0 -22 -24 -22q-11 0 -19.5 8.5t-8.5 19.5q0 4 2.5 13.5t5.5 21t5.5 22.5t2.5 17t-11 9t-28 5q-31 3 -48.5 8t-28.5 25q-9 18 -30 21.5t-36 9.5q-52 19 -52 53q0 10 32 19q81 20 113 71l17.5 25t26.5 36
q42 59 57 74q14 19 28.5 37t29.5 37q13 15 20.5 24l12.5 15t9 10.5t8 10.5q15 21 27.5 37t23.5 28q35 38 77 59v14h-212q-4 0 -26 4.5t-48 9t-49 8t-29 0.5q-3 -5 -0.5 -14t6.5 -18t8 -16t5 -8q23 -49 23 -58q0 -6 -10 -11t-14 -5q-9 0 -20.5 20t-22.5 45t-18 47.5t-7 27.5
q0 17 43 30t104.5 21.5t129 12.5t117.5 4q93 0 191 -24q96 -24 96 -50q0 -10 -7.5 -15t-19.5 -7.5t-26.5 -3t-28.5 -0.5q-17 -5 -23 -20t-20 -40q-17 -31 -28 -49t-15 -25q-5 -9 -11 -20.5t-14 -25.5q-44 -70 -69.5 -109t-32.5 -49q-20 -31 -34 -53t-21 -36q36 0 64 -0.5
t49 -0.5q42 -2 60 -2t12 0q76 0 125 -20q61 -24 61 -68zM205 412q0 -4 -9 -18h-16q-1 0 -3.5 4t-5.5 8.5t-4.5 7t-1.5 0.5l15 19q4 -1 14.5 -8t10.5 -13z" />
    <glyph glyph-name="braceleft" unicode="{" 
d="M521 612q0 -15 -18 -15q-19 0 -19 23q0 15 6 18t12.5 -1t12.5 -11.5t6 -13.5zM601 -186l1 30q0 18 -2 28q-6 15 -12.5 11.5t-8.5 -15.5t2.5 -28t19.5 -26zM252 280v-178h230q39 0 100 -23q84 -31 84 -81q0 -12 -3 -26.5t-11 -29.5q-16 -34 -25 -50t-9 -18q0 -6 3 -20
t7.5 -30t10 -31.5t11.5 -24.5v-30l-15 -3q-9 -2 -13.5 3.5t-7.5 14t-5.5 16t-6.5 10.5q-8 4 -24 8t-22 18t-7 30.5t0.5 31t1.5 19.5q0 24 -16.5 30.5t-50.5 6.5q4 0 -20.5 -3.5t-56.5 -8t-60.5 -8.5t-32.5 -5q-6 -1 -10.5 -1.5t-7.5 -0.5h-16q-8 0 -12.5 0.5t-8.5 1.5h-19
q-27 0 -43.5 -6.5t-16.5 -31.5q0 -1 4.5 -10.5t10 -22.5t10 -26.5t4.5 -22.5q0 -15 -4.5 -26t-8.5 -20h-18q-13 17 -13 42q0 16 5.5 36t9.5 34q0 10 -25.5 30.5t-55.5 44t-55.5 46t-25.5 36.5q0 2 6 10.5t13 16.5t11.5 14t2.5 4v5l-0.5 12t-1.5 35q-1 20 -3.5 45t-2.5 55
v196l40 323q-5 15 -18.5 29t-13.5 36q0 21 24 34.5t60 21t78 10t78 2.5q19 0 55.5 -2t77 -5t78 -7t57.5 -8q3 0 17 -1.5t30 -5.5t28.5 -11t12.5 -18q0 -43 -27 -74q-27 -32 -27 -96l-15 -2q-15 -2 -15 12q0 -3 0.5 3t1.5 21q2 16 3.5 31t-15.5 15q-5 0 -12 -6.5t-15 -14.5
t-15.5 -14.5t-12.5 -6.5q-6 0 -20 12.5t-24 12.5q-29 -11 -76 -12t-106 -1q-5 0 -11 0.5t-11 0.5q-14 0 -15.5 -36t2.5 -92.5t9.5 -126.5t5.5 -138z" />
    <glyph glyph-name="bar" unicode="|" horiz-adv-x="1536" 
d="M610 -35v869h204v-869h-204z" />
    <glyph glyph-name="braceright" unicode="}" 
d="M200 620q0 -23 -16 -23q-21 0 -21 15q0 12 6 18t21 13q0 -1 5 -10.5t5 -12.5zM666 1q0 -34 -82 -86q-80 -51 -80 -71q1 -2 3.5 -11t5 -20.5t4.5 -22.5t2 -16q0 -25 -13 -42h-18q-7 16 -10 23t-3 23q0 7 4.5 18t10 22.5t10 22.5t4.5 19q0 25 -17.5 31.5t-44.5 6.5h-23
q-13 0 -23 -2q-21 0 -43.5 5t-66.5 11q-38 6 -60 8.5t-26 2.5q-40 0 -52 -9q-15 -9 -15 -28q0 -10 1 -19t1 -23q0 -16 -1 -22t-5 -18q-5 -10 -21 -15q-13 -3 -19.5 -12t-11.5 -18t-10.5 -16.5t-17.5 -7.5l-15 3v30q2 4 7.5 19t11 33t9.5 33.5t4 20.5l-7.5 15t-16.5 35.5
t-16.5 41t-7.5 32.5q0 23 22 42t52 33t61.5 21.5t51.5 7.5h227v178q0 39 3 91.5t7 118.5q2 15 7 49.5t5 84.5q0 30 -4 40q-7 10 -17 9t-21 -1q-46 0 -79 1t-53 3q-12 2 -26.5 5t-23.5 4q-10 0 -24 -12.5t-20 -12.5q-5 0 -12.5 6.5t-15.5 14.5t-15 14.5t-12 6.5
q-9 -4 -11.5 -17.5t-2 -27t2.5 -22t2 -2.5q0 -13 -16 -13l-15 2q0 63 -27 96q-27 30 -27 74q0 11 13 18t29.5 11t30.5 5.5t15 1.5q22 4 56.5 8t82.5 8q46 4 78 5t51 1q49 0 87.5 -3.5t69.5 -10.5q83 -18 83 -54q0 -23 -13.5 -36.5t-18.5 -28.5l40 -323v-196q0 -3 -0.5 -19
t-1.5 -44q-1 -22 -3 -44t-3 -45q1 -2 6 -8.5t11 -14t11 -14t5 -8.5zM119 -130q-12 8 -19 20q-14 -13 -16 -19t-2 -27l1 -30q1 2 7.5 11t13 19.5t11.5 18.5t4 7z" />
    <glyph glyph-name="asciitilde" unicode="~" horiz-adv-x="897" 
d="M64 278v103q85 61 210 61q46 0 94 -9q17 -3 52.5 -11.5t88.5 -23.5q56 -15 85.5 -20.5t48.5 -5.5q13 0 37 6t51.5 15.5t54 22t46.5 26.5v-105q-46 -31 -96 -44q-51 -15 -110 -15q-19 0 -41 1.5t-45 6.5q-58 13 -101 25t-71 19q-65 16 -107 16q-52 0 -90 -13
q-43 -14 -107 -55z" />
    <glyph glyph-name="nonbreakingspace" unicode="&#xa0;" horiz-adv-x="768" 
 />
  </font>
</defs>
</svg>
